<svg version="1.1" xmlns="http://www.w3.org/2000/svg" viewBox="0 0 787.3333129882812 722.0000152587891" width="787.3333129882812" height="722.0000152587891" filter="invert(93%) hue-rotate(180deg)" class="excalidraw-svg"><!-- svg-source:excalidraw --><metadata></metadata><defs><style class="style-fonts">
      </style></defs><rect x="0" y="0" width="787.3333129882812" height="722.0000152587891" fill="#ffffff"></rect><g transform="translate(188.66656494140625 438.00001525878906) rotate(0 48.66668701171875 0)" stroke="none"><path fill="#1e1e1e" d="M 0.60,-2.61 Q 0.60,-2.61 3.22,-2.60 5.84,-2.58 9.99,-2.50 14.15,-2.42 16.60,-2.45 19.04,-2.48 24.45,-2.69 29.86,-2.89 32.56,-3.01 35.27,-3.13 38.35,-3.25 41.44,-3.37 44.73,-3.57 48.01,-3.77 51.65,-3.86 55.29,-3.95 59.01,-4.27 62.73,-4.59 66.21,-4.97 69.68,-5.35 72.43,-5.48 75.17,-5.61 78.13,-5.85 81.09,-6.08 84.22,-6.20 87.36,-6.32 90.04,-6.56 92.73,-6.80 94.92,-5.71 97.11,-4.61 97.53,-4.58 97.96,-4.55 98.35,-4.38 98.74,-4.21 99.06,-3.93 99.37,-3.65 99.58,-3.28 99.79,-2.91 99.87,-2.49 99.95,-2.07 99.90,-1.65 99.84,-1.23 99.65,-0.85 99.47,-0.47 99.17,-0.17 98.87,0.12 98.49,0.31 98.10,0.50 97.68,0.56 97.26,0.62 96.85,0.54 96.43,0.46 96.06,0.25 95.69,0.05 95.40,-0.26 95.12,-0.58 94.95,-0.97 94.78,-1.36 94.75,-1.78 94.71,-2.20 94.81,-2.62 94.91,-3.03 95.14,-3.39 95.37,-3.74 95.70,-4.01 96.03,-4.28 96.43,-4.43 96.83,-4.57 97.25,-4.59 97.68,-4.60 98.08,-4.47 98.49,-4.35 98.84,-4.10 99.18,-3.86 99.43,-3.51 99.68,-3.17 99.80,-2.76 99.93,-2.35 99.92,-1.93 99.91,-1.51 99.76,-1.11 99.62,-0.71 99.35,-0.38 99.09,-0.04 98.73,0.18 98.37,0.41 97.96,0.51 97.55,0.61 97.55,0.61 97.55,0.61 95.57,2.05 93.60,3.50 90.65,3.73 87.71,3.96 84.81,4.05 81.90,4.14 78.77,4.39 75.64,4.64 73.08,4.75 70.52,4.87 66.92,5.07 63.32,5.27 59.42,5.41 55.52,5.55 52.05,5.63 48.59,5.71 45.07,5.92 41.55,6.13 38.54,6.08 35.54,6.03 32.93,6.07 30.32,6.10 24.60,6.23 18.88,6.35 16.32,6.23 13.76,6.11 11.36,5.85 8.96,5.60 6.54,5.24 4.12,4.88 1.76,3.75 -0.60,2.61 -0.90,2.50 -1.21,2.39 -1.48,2.21 -1.75,2.03 -1.96,1.79 -2.18,1.55 -2.34,1.27 -2.49,0.98 -2.57,0.67 -2.66,0.36 -2.66,0.03 -2.67,-0.28 -2.59,-0.59 -2.52,-0.91 -2.37,-1.20 -2.23,-1.49 -2.02,-1.73 -1.81,-1.98 -1.54,-2.17 -1.28,-2.35 -0.98,-2.47 -0.68,-2.59 -0.36,-2.64 -0.03,-2.68 0.28,-2.65 0.60,-2.61 0.60,-2.61 L 0.60,-2.61 Z"></path></g><g transform="translate(285.333251953125 409.3333282470703) rotate(0 3 27.333358764648438)" stroke="none"><path fill="#1e1e1e" d="M -2.70,-0.60 Q -2.70,-0.60 -2.72,-2.41 -2.74,-4.23 -2.14,-6.53 -1.54,-8.83 -1.38,-9.27 -1.22,-9.72 -0.96,-10.11 -0.70,-10.51 -0.35,-10.83 -0.00,-11.15 0.40,-11.38 0.82,-11.61 1.28,-11.73 1.74,-11.85 2.21,-11.86 2.68,-11.87 3.14,-11.77 3.61,-11.66 4.03,-11.45 4.45,-11.24 4.81,-10.93 5.18,-10.62 5.45,-10.24 5.73,-9.85 5.91,-9.41 6.08,-8.97 6.15,-8.50 6.21,-8.03 6.17,-7.56 6.12,-7.09 6.40,-3.46 6.69,0.16 6.66,3.40 6.62,6.64 6.72,10.06 6.82,13.49 7.12,17.67 7.42,21.85 7.70,26.02 7.99,30.19 8.10,32.63 8.21,35.06 8.25,37.44 8.29,39.81 8.53,43.77 8.77,47.73 9.01,51.12 9.24,54.51 9.36,56.76 9.47,59.02 9.05,61.16 8.62,63.30 8.56,63.72 8.49,64.14 8.30,64.52 8.10,64.90 7.80,65.19 7.49,65.49 7.11,65.67 6.73,65.85 6.30,65.90 5.88,65.95 5.47,65.87 5.05,65.78 4.68,65.56 4.32,65.35 4.04,65.03 3.76,64.71 3.60,64.31 3.44,63.92 3.41,63.50 3.38,63.07 3.49,62.66 3.60,62.25 3.83,61.90 4.07,61.54 4.40,61.28 4.74,61.02 5.14,60.88 5.54,60.74 5.97,60.74 6.39,60.73 6.80,60.86 7.20,60.99 7.54,61.25 7.88,61.50 8.12,61.85 8.37,62.20 8.48,62.61 8.60,63.02 8.58,63.44 8.57,63.87 8.41,64.26 8.26,64.66 7.99,64.99 7.72,65.31 7.35,65.53 6.99,65.76 6.58,65.85 6.17,65.95 5.74,65.91 5.32,65.87 4.93,65.69 4.54,65.52 4.23,65.23 3.92,64.94 3.72,64.57 3.51,64.19 3.44,63.77 3.37,63.36 3.37,63.36 3.37,63.36 2.84,60.37 2.31,57.39 2.00,54.62 1.69,51.86 1.55,48.19 1.40,44.52 1.15,42.23 0.91,39.95 0.87,37.66 0.83,35.37 0.73,33.15 0.64,30.92 0.27,26.71 -0.09,22.51 -0.33,19.86 -0.57,17.21 -0.87,13.65 -1.17,10.10 -1.25,6.99 -1.33,3.88 -1.32,0.25 -1.30,-3.36 -1.42,-6.09 -1.54,-8.83 -1.38,-9.27 -1.22,-9.72 -0.96,-10.11 -0.70,-10.51 -0.35,-10.83 -0.00,-11.15 0.40,-11.38 0.82,-11.61 1.28,-11.73 1.73,-11.85 2.21,-11.86 2.68,-11.87 3.14,-11.77 3.61,-11.66 4.03,-11.45 4.45,-11.24 4.81,-10.93 5.18,-10.62 5.45,-10.24 5.73,-9.85 5.90,-9.41 6.08,-8.97 6.15,-8.50 6.21,-8.04 6.17,-7.56 6.12,-7.09 5.20,-4.88 4.28,-2.66 3.49,-1.03 2.70,0.60 2.59,0.91 2.47,1.22 2.29,1.50 2.11,1.78 1.86,2.01 1.62,2.24 1.33,2.40 1.04,2.56 0.71,2.65 0.39,2.73 0.06,2.74 -0.27,2.75 -0.59,2.68 -0.92,2.60 -1.22,2.46 -1.51,2.31 -1.77,2.09 -2.02,1.88 -2.22,1.61 -2.42,1.34 -2.54,1.03 -2.67,0.72 -2.71,0.39 -2.76,0.06 -2.73,-0.26 -2.70,-0.60 -2.70,-0.60 L -2.70,-0.60 Z"></path></g><g transform="translate(317.333251953125 358.00001525878906) rotate(0 4.33331298828125 70.33334350585938)" stroke="none"><path fill="#1e1e1e" d="M -2.56,1.09 Q -2.56,1.09 -3.47,-0.09 -4.38,-1.29 -5.23,-2.26 -6.08,-3.22 -6.27,-3.68 -6.47,-4.15 -6.55,-4.64 -6.62,-5.13 -6.58,-5.63 -6.54,-6.13 -6.38,-6.60 -6.22,-7.08 -5.95,-7.50 -5.68,-7.92 -5.32,-8.27 -4.96,-8.61 -4.53,-8.86 -4.09,-9.11 -3.61,-9.25 -3.13,-9.39 -2.63,-9.41 -2.13,-9.42 -1.64,-9.32 -1.15,-9.22 -0.70,-9.01 -0.25,-8.79 0.13,-8.47 0.52,-8.15 0.82,-7.75 1.12,-7.35 1.39,-4.79 1.66,-2.23 1.67,0.45 1.68,3.13 1.59,6.74 1.50,10.35 1.41,14.19 1.32,18.04 1.79,23.28 2.27,28.52 2.40,31.02 2.54,33.52 3.00,37.51 3.45,41.50 3.82,44.13 4.18,46.77 4.74,50.80 5.29,54.83 5.72,57.45 6.14,60.07 6.72,63.06 7.30,66.06 7.75,69.37 8.19,72.69 8.75,76.10 9.31,79.52 9.77,82.77 10.24,86.03 10.64,89.55 11.05,93.07 11.22,95.39 11.38,97.71 11.64,100.54 11.89,103.37 12.21,106.28 12.53,109.20 13.25,114.37 13.96,119.53 14.46,124.37 14.96,129.21 15.38,132.55 15.79,135.89 15.66,139.45 15.52,143.02 14.40,144.90 13.29,146.79 13.20,147.21 13.11,147.62 12.89,147.99 12.67,148.35 12.35,148.63 12.03,148.91 11.63,149.07 11.24,149.22 10.81,149.25 10.39,149.27 9.98,149.16 9.57,149.05 9.22,148.81 8.86,148.58 8.60,148.24 8.35,147.90 8.21,147.50 8.07,147.10 8.07,146.67 8.07,146.25 8.20,145.84 8.34,145.44 8.59,145.10 8.85,144.76 9.20,144.52 9.55,144.28 9.96,144.17 10.37,144.05 10.79,144.07 11.22,144.09 11.61,144.25 12.01,144.41 12.33,144.68 12.66,144.95 12.88,145.32 13.10,145.68 13.19,146.09 13.28,146.51 13.24,146.93 13.20,147.35 13.02,147.74 12.84,148.13 12.55,148.44 12.26,148.75 11.88,148.95 11.51,149.15 11.09,149.22 10.67,149.29 10.25,149.22 9.83,149.15 9.46,148.96 9.08,148.76 8.79,148.45 8.49,148.14 8.31,147.76 8.13,147.37 8.09,146.95 8.04,146.53 8.04,146.53 8.04,146.53 7.18,144.24 6.31,141.94 6.43,139.21 6.55,136.48 6.25,133.09 5.95,129.70 5.85,127.30 5.75,124.90 5.41,122.68 5.06,120.46 4.79,117.41 4.52,114.37 4.21,112.23 3.90,110.09 3.61,107.11 3.33,104.14 3.07,101.23 2.80,98.32 2.65,96.16 2.50,94.00 2.15,90.58 1.81,87.17 1.41,84.02 1.01,80.87 0.43,77.34 -0.13,73.80 -0.55,70.69 -0.96,67.58 -1.51,64.47 -2.06,61.37 -2.48,58.65 -2.90,55.93 -3.43,51.92 -3.96,47.90 -4.34,45.13 -4.73,42.36 -5.14,38.13 -5.55,33.91 -5.65,31.53 -5.74,29.15 -6.20,23.59 -6.65,18.04 -6.74,14.19 -6.83,10.34 -6.92,6.73 -7.00,3.11 -6.54,-0.05 -6.08,-3.22 -6.27,-3.68 -6.47,-4.14 -6.55,-4.64 -6.62,-5.13 -6.58,-5.63 -6.54,-6.13 -6.38,-6.60 -6.22,-7.08 -5.95,-7.50 -5.68,-7.92 -5.32,-8.27 -4.96,-8.61 -4.53,-8.86 -4.09,-9.11 -3.61,-9.25 -3.13,-9.39 -2.63,-9.41 -2.13,-9.42 -1.64,-9.32 -1.15,-9.22 -0.70,-9.01 -0.25,-8.79 0.13,-8.47 0.52,-8.15 0.82,-7.75 1.12,-7.35 1.60,-5.71 2.08,-4.06 2.32,-2.58 2.56,-1.09 2.65,-0.77 2.75,-0.45 2.76,-0.11 2.78,0.21 2.71,0.54 2.64,0.87 2.50,1.18 2.36,1.48 2.14,1.74 1.93,2.00 1.66,2.21 1.39,2.41 1.09,2.54 0.78,2.67 0.44,2.73 0.11,2.78 -0.21,2.76 -0.55,2.73 -0.87,2.62 -1.19,2.52 -1.47,2.34 -1.75,2.16 -1.99,1.92 -2.22,1.68 -2.39,1.38 -2.56,1.09 -2.56,1.09 L -2.56,1.09 Z"></path></g><g transform="translate(327.99993896484375 384.6666717529297) rotate(0 85.33331298828125 -4)" stroke="none"><path fill="#1e1e1e" d="M 0.26,-2.65 Q 0.26,-2.65 2.21,-2.81 4.16,-2.97 7.86,-3.26 11.56,-3.56 14.45,-3.85 17.34,-4.14 22.06,-4.81 26.78,-5.48 29.89,-5.84 33.00,-6.20 36.64,-6.58 40.27,-6.95 43.92,-7.28 47.57,-7.61 50.54,-7.76 53.52,-7.91 57.01,-8.12 60.49,-8.33 64.77,-8.36 69.05,-8.40 73.54,-8.41 78.03,-8.42 81.27,-8.44 84.52,-8.46 89.74,-8.47 94.95,-8.48 98.51,-8.49 102.07,-8.50 106.07,-8.52 110.08,-8.53 114.38,-8.72 118.68,-8.91 123.08,-8.99 127.48,-9.08 131.66,-9.13 135.83,-9.19 139.81,-9.42 143.79,-9.65 147.58,-9.93 151.37,-10.20 153.66,-10.50 155.94,-10.80 158.71,-11.10 161.48,-11.41 163.97,-11.69 166.46,-11.97 168.39,-11.62 170.32,-11.27 170.74,-11.25 171.17,-11.24 171.57,-11.09 171.97,-10.94 172.30,-10.67 172.63,-10.41 172.85,-10.05 173.08,-9.69 173.18,-9.27 173.28,-8.86 173.24,-8.44 173.21,-8.02 173.04,-7.63 172.87,-7.24 172.58,-6.92 172.30,-6.61 171.93,-6.40 171.56,-6.19 171.14,-6.11 170.72,-6.04 170.30,-6.10 169.88,-6.15 169.50,-6.35 169.12,-6.54 168.82,-6.84 168.52,-7.14 168.33,-7.52 168.15,-7.90 168.09,-8.32 168.04,-8.75 168.12,-9.16 168.20,-9.58 168.41,-9.95 168.62,-10.32 168.94,-10.60 169.26,-10.88 169.65,-11.05 170.04,-11.21 170.46,-11.25 170.89,-11.28 171.30,-11.17 171.71,-11.07 172.07,-10.84 172.43,-10.61 172.69,-10.28 172.95,-9.94 173.10,-9.54 173.24,-9.14 173.25,-8.72 173.26,-8.29 173.14,-7.89 173.01,-7.48 172.76,-7.14 172.51,-6.79 172.16,-6.55 171.82,-6.30 171.41,-6.18 171.00,-6.06 171.00,-6.06 171.00,-6.06 169.23,-5.22 167.45,-4.38 164.93,-4.00 162.40,-3.63 159.68,-3.28 156.96,-2.94 154.45,-2.62 151.95,-2.29 148.07,-2.01 144.19,-1.73 140.04,-1.54 135.89,-1.36 131.76,-1.35 127.63,-1.34 123.32,-1.26 119.02,-1.18 114.55,-0.99 110.08,-0.79 106.08,-0.80 102.08,-0.81 98.52,-0.81 94.97,-0.82 89.77,-0.81 84.57,-0.81 81.34,-0.79 78.11,-0.77 73.68,-0.69 69.24,-0.61 65.16,-0.43 61.07,-0.25 57.49,0.03 53.92,0.32 51.12,0.46 48.31,0.59 44.67,0.92 41.02,1.26 37.43,1.54 33.84,1.83 30.75,2.11 27.66,2.40 24.93,2.65 22.19,2.90 20.04,3.17 17.88,3.44 13.28,3.59 8.69,3.73 6.09,3.73 3.50,3.73 1.61,3.19 -0.26,2.65 -0.57,2.58 -0.89,2.51 -1.17,2.36 -1.46,2.22 -1.71,2.01 -1.95,1.80 -2.14,1.54 -2.33,1.28 -2.45,0.98 -2.57,0.69 -2.61,0.37 -2.66,0.05 -2.63,-0.26 -2.59,-0.58 -2.49,-0.88 -2.38,-1.18 -2.20,-1.45 -2.03,-1.72 -1.79,-1.94 -1.55,-2.15 -1.27,-2.31 -0.99,-2.47 -0.68,-2.55 -0.37,-2.63 -0.05,-2.64 0.26,-2.65 0.26,-2.65 L 0.26,-2.65 Z"></path></g><g transform="translate(489.33331298828125 371.3333282470703) rotate(0 -1.66668701171875 -38)" stroke="none"><path fill="#1e1e1e" d="M -2.59,-0.97 Q -2.59,-0.97 -2.52,-2.68 -2.46,-4.40 -2.27,-6.59 -2.09,-8.79 -2.32,-11.15 -2.55,-13.52 -2.78,-16.57 -3.01,-19.61 -3.48,-23.08 -3.95,-26.55 -4.36,-30.39 -4.77,-34.23 -4.87,-37.74 -4.96,-41.25 -5.34,-45.35 -5.73,-49.44 -5.98,-52.91 -6.24,-56.38 -6.61,-59.05 -6.98,-61.72 -7.56,-64.62 -8.13,-67.52 -8.03,-71.59 -7.93,-75.66 -7.92,-76.09 -7.90,-76.51 -7.75,-76.91 -7.60,-77.31 -7.33,-77.64 -7.06,-77.97 -6.70,-78.19 -6.34,-78.42 -5.93,-78.52 -5.52,-78.61 -5.10,-78.58 -4.67,-78.54 -4.28,-78.37 -3.89,-78.20 -3.58,-77.91 -3.27,-77.62 -3.06,-77.25 -2.85,-76.88 -2.78,-76.46 -2.70,-76.04 -2.76,-75.62 -2.82,-75.20 -3.02,-74.82 -3.21,-74.44 -3.51,-74.15 -3.82,-73.85 -4.20,-73.66 -4.58,-73.48 -5.00,-73.42 -5.42,-73.37 -5.84,-73.45 -6.26,-73.54 -6.62,-73.75 -6.99,-73.96 -7.27,-74.28 -7.55,-74.60 -7.72,-74.99 -7.88,-75.38 -7.91,-75.81 -7.94,-76.23 -7.84,-76.64 -7.73,-77.05 -7.50,-77.41 -7.27,-77.77 -6.93,-78.03 -6.60,-78.29 -6.20,-78.44 -5.80,-78.58 -5.37,-78.59 -4.95,-78.59 -4.55,-78.47 -4.14,-78.34 -3.80,-78.09 -3.45,-77.84 -3.21,-77.49 -2.96,-77.14 -2.84,-76.73 -2.72,-76.33 -2.72,-76.33 -2.72,-76.33 -0.82,-72.93 1.06,-69.52 1.69,-66.33 2.33,-63.14 2.59,-60.20 2.85,-57.26 3.05,-54.95 3.24,-52.64 3.32,-49.29 3.40,-45.95 3.54,-43.64 3.68,-41.34 3.71,-38.01 3.74,-34.68 4.02,-30.91 4.30,-27.13 4.62,-23.83 4.94,-20.54 5.17,-17.26 5.40,-13.99 5.59,-11.02 5.78,-8.05 5.27,-4.89 4.76,-1.73 3.67,-0.37 2.59,0.97 2.43,1.26 2.28,1.56 2.06,1.81 1.84,2.06 1.56,2.25 1.29,2.44 0.98,2.56 0.67,2.68 0.34,2.72 0.01,2.76 -0.32,2.72 -0.65,2.68 -0.96,2.57 -1.27,2.45 -1.55,2.26 -1.82,2.07 -2.04,1.82 -2.27,1.58 -2.42,1.28 -2.58,0.99 -2.66,0.66 -2.74,0.34 -2.74,0.00 -2.74,-0.32 -2.66,-0.64 -2.59,-0.97 -2.59,-0.97 L -2.59,-0.97 Z"></path></g><g transform="translate(481.33331298828125 292.6666717529297) rotate(0 -8.3333740234375 -66)" stroke="none"><path fill="#1e1e1e" d="M -0.72,-2.64 Q -0.72,-2.64 1.29,-3.56 3.30,-4.48 5.94,-5.27 8.58,-6.05 10.99,-6.58 13.39,-7.11 15.74,-8.05 18.09,-9.00 20.18,-9.97 22.26,-10.93 22.14,-7.68 22.01,-4.42 18.62,-4.28 15.23,-4.14 12.88,-4.55 10.53,-4.96 7.74,-5.67 4.95,-6.38 1.04,-7.23 -2.86,-8.07 -6.17,-8.90 -9.49,-9.73 -13.10,-10.32 -16.72,-10.90 -19.84,-11.24 -22.95,-11.57 -25.35,-11.90 -27.74,-12.22 -30.42,-13.36 -33.09,-14.50 -32.81,-17.79 -32.52,-21.09 -30.41,-22.36 -28.30,-23.63 -25.81,-24.36 -23.33,-25.09 -21.06,-25.64 -18.80,-26.19 -16.09,-26.68 -13.37,-27.18 -10.26,-27.95 -7.14,-28.72 -3.62,-29.45 -0.10,-30.17 3.00,-31.22 6.11,-32.27 9.15,-33.15 12.19,-34.02 14.38,-34.98 16.58,-35.94 18.08,-34.38 19.58,-32.82 17.44,-33.26 15.30,-33.70 12.89,-34.09 10.49,-34.48 7.40,-35.07 4.31,-35.66 0.51,-36.25 -3.28,-36.84 -6.42,-37.34 -9.56,-37.84 -13.40,-38.76 -17.25,-39.67 -21.07,-40.09 -24.89,-40.51 -27.91,-40.86 -30.93,-41.22 -33.51,-41.30 -36.09,-41.37 -39.53,-41.98 -42.97,-42.60 -43.59,-45.50 -44.22,-48.41 -41.26,-50.31 -38.30,-52.20 -35.96,-52.93 -33.62,-53.67 -31.31,-54.50 -29.01,-55.34 -24.81,-56.42 -20.62,-57.50 -16.48,-58.58 -12.34,-59.65 -8.62,-60.76 -4.89,-61.87 -2.50,-62.36 -0.11,-62.85 2.01,-63.23 4.14,-63.62 7.75,-64.32 11.37,-65.01 13.55,-65.65 15.72,-66.30 18.23,-67.11 20.74,-67.92 20.62,-65.35 20.50,-62.77 17.72,-63.40 14.94,-64.02 12.52,-64.33 10.11,-64.64 7.16,-65.04 4.21,-65.43 1.71,-65.90 -0.77,-66.36 -3.61,-67.12 -6.46,-67.88 -9.24,-68.30 -12.03,-68.73 -15.48,-69.63 -18.93,-70.53 -21.33,-70.98 -23.72,-71.44 -26.30,-72.04 -28.89,-72.64 -31.72,-73.69 -34.56,-74.75 -35.15,-77.70 -35.75,-80.65 -33.81,-82.39 -31.87,-84.14 -29.20,-84.86 -26.53,-85.57 -24.03,-85.95 -21.53,-86.33 -18.97,-86.83 -16.41,-87.32 -13.93,-87.83 -11.45,-88.33 -8.07,-89.10 -4.69,-89.87 -0.56,-90.75 3.56,-91.62 6.19,-92.38 8.81,-93.14 10.91,-93.81 13.01,-94.48 15.37,-95.37 17.73,-96.26 17.73,-94.05 17.73,-91.83 15.51,-91.57 13.29,-91.31 10.45,-91.57 7.61,-91.83 4.59,-92.23 1.57,-92.62 -1.98,-92.89 -5.54,-93.16 -9.33,-93.28 -13.13,-93.40 -15.32,-93.63 -17.51,-93.86 -21.32,-93.98 -25.13,-94.09 -27.96,-94.39 -30.79,-94.69 -33.41,-95.30 -36.03,-95.92 -38.64,-97.81 -41.24,-99.71 -40.81,-102.93 -40.37,-106.15 -37.83,-108.21 -35.30,-110.28 -32.32,-111.70 -29.35,-113.13 -25.79,-114.27 -22.24,-115.40 -18.85,-116.05 -15.46,-116.70 -12.29,-117.34 -9.12,-117.99 -6.82,-118.36 -4.52,-118.73 -1.39,-119.39 1.73,-120.05 4.39,-120.93 7.05,-121.81 5.06,-122.65 3.06,-123.49 1.16,-125.20 -0.73,-126.90 -1.05,-130.14 -1.37,-133.38 2.08,-133.98 5.54,-134.58 5.96,-134.59 6.39,-134.59 6.79,-134.46 7.20,-134.33 7.54,-134.08 7.88,-133.82 8.12,-133.48 8.37,-133.13 8.48,-132.72 8.60,-132.31 8.58,-131.89 8.57,-131.46 8.41,-131.06 8.26,-130.67 7.99,-130.34 7.72,-130.01 7.36,-129.79 7.00,-129.57 6.58,-129.47 6.17,-129.37 5.75,-129.41 5.32,-129.46 4.93,-129.63 4.55,-129.80 4.24,-130.09 3.92,-130.38 3.72,-130.75 3.52,-131.13 3.44,-131.55 3.37,-131.96 3.43,-132.38 3.50,-132.80 3.69,-133.18 3.89,-133.56 4.19,-133.86 4.50,-134.15 4.88,-134.33 5.26,-134.52 5.68,-134.57 6.11,-134.62 6.52,-134.53 6.94,-134.45 7.30,-134.23 7.67,-134.02 7.95,-133.70 8.23,-133.38 8.39,-132.98 8.55,-132.59 8.58,-132.17 8.61,-131.74 8.50,-131.33 8.39,-130.92 8.16,-130.57 7.92,-130.21 7.59,-129.95 7.25,-129.69 6.85,-129.55 6.45,-129.41 6.45,-129.41 6.45,-129.41 5.76,-128.17 5.08,-126.93 5.81,-129.57 6.53,-132.21 8.60,-130.83 10.67,-129.44 12.27,-127.96 13.86,-126.47 14.94,-124.46 16.02,-122.45 15.52,-119.46 15.02,-116.48 12.73,-114.84 10.45,-113.20 8.30,-112.46 6.16,-111.72 3.04,-111.04 -0.07,-110.36 -3.52,-109.69 -6.98,-109.02 -10.40,-108.34 -13.83,-107.66 -17.06,-107.04 -20.30,-106.42 -22.82,-105.66 -25.35,-104.89 -28.68,-104.50 -32.02,-104.11 -29.86,-103.81 -27.70,-103.51 -24.27,-103.27 -20.84,-103.04 -18.71,-102.94 -16.57,-102.84 -12.71,-102.62 -8.84,-102.40 -6.70,-102.30 -4.57,-102.20 -1.09,-101.94 2.38,-101.68 5.64,-101.27 8.89,-100.85 11.77,-100.57 14.65,-100.28 17.03,-99.74 19.41,-99.19 21.39,-98.39 23.37,-97.60 24.12,-94.45 24.87,-91.31 22.31,-89.32 19.75,-87.33 17.63,-86.59 15.51,-85.84 13.35,-85.13 11.20,-84.42 8.39,-83.61 5.58,-82.81 3.17,-82.26 0.76,-81.72 -2.60,-81.06 -5.96,-80.39 -9.31,-79.53 -12.65,-78.66 -15.21,-78.27 -17.76,-77.88 -20.20,-77.56 -22.63,-77.24 -25.87,-77.21 -29.11,-77.17 -28.48,-79.41 -27.86,-81.66 -25.17,-80.88 -22.48,-80.11 -19.61,-79.56 -16.73,-79.01 -13.97,-78.25 -11.21,-77.50 -7.72,-76.95 -4.23,-76.40 -1.67,-75.70 0.87,-75.00 4.44,-74.45 8.01,-73.89 11.15,-73.34 14.29,-72.78 16.90,-72.25 19.51,-71.71 21.68,-71.01 23.85,-70.32 25.52,-68.51 27.18,-66.71 26.70,-64.19 26.23,-61.67 24.27,-60.60 22.30,-59.52 20.14,-58.78 17.98,-58.04 15.55,-57.34 13.13,-56.63 9.40,-55.94 5.67,-55.24 1.57,-54.46 -2.52,-53.69 -6.30,-52.60 -10.07,-51.51 -14.51,-50.37 -18.95,-49.23 -22.62,-48.37 -26.28,-47.50 -28.75,-46.64 -31.22,-45.78 -34.39,-44.94 -37.56,-44.11 -37.89,-46.67 -38.22,-49.22 -35.58,-49.11 -32.94,-49.00 -29.94,-48.64 -26.93,-48.28 -23.51,-47.90 -20.09,-47.53 -17.89,-47.32 -15.70,-47.12 -12.00,-46.24 -8.30,-45.35 -5.07,-44.94 -1.84,-44.53 1.82,-43.99 5.48,-43.46 8.34,-42.97 11.19,-42.47 14.17,-42.01 17.15,-41.55 19.24,-41.05 21.34,-40.55 23.28,-38.81 25.23,-37.07 23.13,-33.11 21.03,-29.16 18.82,-28.07 16.60,-26.99 14.12,-26.20 11.65,-25.42 8.47,-24.37 5.30,-23.31 1.62,-22.39 -2.06,-21.48 -5.03,-20.75 -8.00,-20.01 -10.15,-19.54 -12.29,-19.07 -14.59,-18.66 -16.88,-18.25 -19.39,-17.68 -21.90,-17.11 -24.09,-18.09 -26.29,-19.07 -23.91,-18.71 -21.54,-18.36 -18.55,-17.94 -15.55,-17.52 -12.21,-16.97 -8.88,-16.42 -4.85,-16.09 -0.82,-15.76 2.67,-15.00 6.17,-14.25 8.98,-14.30 11.80,-14.35 15.18,-13.96 18.56,-13.57 20.87,-13.22 23.17,-12.87 25.67,-11.87 28.18,-10.88 25.43,-6.33 22.68,-1.77 20.66,-1.02 18.63,-0.26 16.54,0.26 14.45,0.78 12.27,1.02 10.09,1.27 7.61,1.72 5.12,2.18 2.92,2.41 0.72,2.64 0.39,2.69 0.06,2.74 -0.26,2.71 -0.59,2.68 -0.90,2.57 -1.21,2.46 -1.49,2.28 -1.76,2.09 -1.99,1.85 -2.22,1.61 -2.38,1.32 -2.54,1.03 -2.62,0.71 -2.71,0.39 -2.72,0.06 -2.73,-0.26 -2.66,-0.58 -2.59,-0.91 -2.44,-1.20 -2.29,-1.50 -2.08,-1.75 -1.87,-2.00 -1.60,-2.20 -1.33,-2.39 -1.02,-2.52 -0.72,-2.64 -0.72,-2.64 L -0.72,-2.64 Z"></path></g><g transform="translate(480.66656494140625 162) rotate(0 0.00005000000000165983 0.00004999999998744897)" stroke="none"><path fill="#1e1e1e" d="M 4.25,-4.24 Q 4.25,-4.24 4.81,-3.46 5.38,-2.67 5.67,-1.74 5.95,-0.81 5.92,0.16 5.90,1.13 5.56,2.04 5.23,2.95 4.62,3.71 4.01,4.47 3.19,4.99 2.37,5.52 1.43,5.75 0.48,5.99 -0.48,5.91 -1.45,5.83 -2.34,5.44 -3.23,5.06 -3.96,4.41 -4.68,3.76 -5.16,2.91 -5.64,2.07 -5.82,1.11 -6.00,0.16 -5.87,-0.80 -5.74,-1.76 -5.31,-2.63 -4.88,-3.50 -4.19,-4.19 -3.50,-4.88 -2.63,-5.31 -1.76,-5.74 -0.79,-5.87 0.16,-6.00 1.11,-5.82 2.07,-5.64 2.92,-5.16 3.76,-4.68 4.41,-3.95 5.06,-3.23 5.44,-2.34 5.83,-1.44 5.91,-0.47 5.99,0.48 5.75,1.43 5.52,2.37 4.99,3.19 4.47,4.01 3.71,4.62 2.95,5.23 2.04,5.56 1.13,5.90 0.15,5.92 -0.81,5.95 -1.74,5.66 -2.67,5.38 -3.46,4.81 -4.25,4.24 -4.25,4.24 -4.24,4.25 -4.69,3.67 -5.14,3.10 -5.44,2.44 -5.73,1.78 -5.86,1.07 -5.99,0.36 -5.95,-0.36 -5.91,-1.08 -5.69,-1.77 -5.48,-2.46 -5.10,-3.08 -4.73,-3.70 -4.21,-4.21 -3.70,-4.73 -3.08,-5.10 -2.46,-5.48 -1.77,-5.69 -1.08,-5.91 -0.35,-5.95 0.36,-5.99 1.07,-5.86 1.78,-5.73 2.44,-5.44 3.10,-5.14 3.68,-4.69 4.25,-4.24 4.25,-4.24 L 4.25,-4.24 Z"></path></g><g transform="translate(482.66656494140625 163.3333282470703) rotate(0 -13.6666259765625 -2.3333282470703125)" stroke="none"><path fill="#1e1e1e" d="M -0.57,2.87 Q -0.57,2.87 -2.54,2.75 -4.51,2.63 -7.11,2.22 -9.72,1.80 -12.53,1.52 -15.34,1.24 -17.61,0.98 -19.88,0.71 -22.02,0.38 -24.17,0.06 -26.22,-1.07 -28.28,-2.21 -28.64,-2.43 -29.01,-2.64 -29.29,-2.96 -29.57,-3.29 -29.73,-3.68 -29.89,-4.07 -29.91,-4.50 -29.94,-4.92 -29.83,-5.33 -29.72,-5.74 -29.49,-6.09 -29.25,-6.45 -28.92,-6.71 -28.58,-6.97 -28.18,-7.11 -27.78,-7.25 -27.35,-7.25 -26.93,-7.26 -26.52,-7.13 -26.12,-6.99 -25.78,-6.74 -25.44,-6.49 -25.20,-6.14 -24.96,-5.79 -24.84,-5.38 -24.72,-4.97 -24.74,-4.55 -24.76,-4.12 -24.91,-3.73 -25.06,-3.33 -25.34,-3.00 -25.61,-2.68 -25.97,-2.45 -26.33,-2.23 -26.75,-2.14 -27.16,-2.04 -27.58,-2.08 -28.01,-2.12 -28.39,-2.30 -28.78,-2.47 -29.09,-2.76 -29.40,-3.05 -29.61,-3.43 -29.81,-3.80 -29.88,-4.22 -29.95,-4.64 -29.89,-5.06 -29.83,-5.48 -29.63,-5.85 -29.43,-6.23 -29.13,-6.53 -28.82,-6.82 -28.44,-7.00 -28.06,-7.19 -27.63,-7.24 -27.21,-7.29 -26.80,-7.20 -26.38,-7.11 -26.38,-7.11 -26.38,-7.11 -24.90,-7.44 -23.42,-7.76 -21.32,-7.42 -19.21,-7.08 -17.00,-6.67 -14.79,-6.25 -11.86,-5.81 -8.92,-5.36 -6.04,-4.76 -3.15,-4.16 -1.28,-3.51 0.57,-2.87 0.90,-2.76 1.24,-2.65 1.54,-2.46 1.84,-2.27 2.08,-2.02 2.33,-1.76 2.51,-1.46 2.69,-1.15 2.79,-0.82 2.88,-0.48 2.90,-0.12 2.92,0.22 2.85,0.57 2.78,0.91 2.63,1.23 2.48,1.55 2.26,1.83 2.03,2.10 1.75,2.31 1.47,2.53 1.15,2.67 0.82,2.81 0.47,2.86 0.12,2.92 -0.22,2.89 -0.57,2.87 -0.57,2.87 L -0.57,2.87 Z"></path></g><g transform="translate(461.99993896484375 159.3333282470703) rotate(0 -1.66668701171875 -19)" stroke="none"><path fill="#1e1e1e" d="M -2.70,0 Q -2.70,0 -3.10,-2.49 -3.49,-4.98 -3.75,-8.48 -4.01,-11.98 -4.51,-14.58 -5.02,-17.18 -5.35,-20.43 -5.69,-23.67 -6.27,-26.61 -6.86,-29.55 -6.94,-32.00 -7.02,-34.45 -6.47,-36.01 -5.92,-37.58 -5.92,-38.00 -5.92,-38.43 -5.78,-38.83 -5.65,-39.23 -5.39,-39.57 -5.13,-39.91 -4.78,-40.14 -4.43,-40.38 -4.02,-40.49 -3.61,-40.61 -3.18,-40.58 -2.76,-40.56 -2.36,-40.40 -1.97,-40.24 -1.65,-39.97 -1.32,-39.69 -1.10,-39.33 -0.89,-38.96 -0.80,-38.55 -0.71,-38.13 -0.75,-37.71 -0.80,-37.29 -0.98,-36.90 -1.16,-36.52 -1.45,-36.21 -1.74,-35.90 -2.12,-35.70 -2.49,-35.50 -2.91,-35.44 -3.33,-35.37 -3.75,-35.44 -4.17,-35.51 -4.55,-35.71 -4.92,-35.91 -5.21,-36.22 -5.51,-36.53 -5.68,-36.91 -5.86,-37.30 -5.91,-37.72 -5.95,-38.14 -5.86,-38.56 -5.77,-38.97 -5.55,-39.34 -5.33,-39.70 -5.00,-39.97 -4.68,-40.25 -4.28,-40.41 -3.89,-40.56 -3.46,-40.58 -3.04,-40.61 -2.63,-40.49 -2.22,-40.38 -1.87,-40.14 -1.52,-39.90 -1.26,-39.56 -1.00,-39.22 -0.87,-38.82 -0.74,-38.41 -0.74,-38.41 -0.74,-38.41 0.50,-36.56 1.75,-34.70 1.82,-32.52 1.89,-30.33 2.13,-27.58 2.37,-24.82 2.70,-21.61 3.03,-18.40 3.13,-15.53 3.24,-12.66 3.36,-8.82 3.49,-4.98 3.10,-2.49 2.70,0 2.66,0.32 2.62,0.64 2.51,0.95 2.39,1.25 2.21,1.52 2.02,1.79 1.78,2.01 1.53,2.22 1.24,2.38 0.96,2.53 0.64,2.61 0.32,2.68 -0.00,2.68 -0.32,2.68 -0.64,2.61 -0.96,2.53 -1.24,2.38 -1.53,2.22 -1.78,2.01 -2.02,1.79 -2.21,1.52 -2.39,1.25 -2.51,0.95 -2.62,0.64 -2.66,0.32 -2.70,-0.00 -2.70,-0.00 L -2.70,0 Z"></path></g><g transform="translate(343.333251953125 471.3333282470703) rotate(0 55.666656494140625 -3)" stroke="none"><path fill="#1e1e1e" d="M -0.19,-2.76 Q -0.19,-2.76 2.46,-3.27 5.12,-3.79 9.72,-4.32 14.32,-4.85 18.56,-5.19 22.81,-5.53 25.52,-5.81 28.22,-6.09 30.43,-6.22 32.64,-6.35 35.41,-6.48 38.18,-6.61 41.30,-6.70 44.42,-6.80 47.66,-7.01 50.91,-7.22 53.18,-7.54 55.46,-7.86 59.41,-8.17 63.36,-8.48 66.01,-8.61 68.66,-8.73 71.34,-8.74 74.03,-8.75 76.70,-8.78 79.38,-8.81 82.05,-8.82 84.72,-8.83 87.49,-8.66 90.26,-8.49 92.49,-8.43 94.72,-8.37 97.00,-8.34 99.29,-8.31 102.60,-8.56 105.92,-8.81 108.60,-8.71 111.27,-8.62 111.69,-8.56 112.11,-8.50 112.49,-8.31 112.87,-8.12 113.17,-7.82 113.47,-7.51 113.66,-7.13 113.84,-6.75 113.90,-6.33 113.95,-5.91 113.87,-5.49 113.79,-5.07 113.58,-4.71 113.37,-4.34 113.05,-4.06 112.73,-3.77 112.34,-3.61 111.95,-3.44 111.52,-3.41 111.10,-3.38 110.69,-3.48 110.28,-3.59 109.92,-3.82 109.56,-4.05 109.30,-4.38 109.03,-4.72 108.89,-5.12 108.75,-5.52 108.74,-5.94 108.73,-6.37 108.86,-6.77 108.98,-7.18 109.23,-7.52 109.48,-7.86 109.83,-8.11 110.18,-8.36 110.58,-8.48 110.99,-8.60 111.41,-8.59 111.84,-8.57 112.24,-8.42 112.63,-8.27 112.96,-8.01 113.29,-7.74 113.52,-7.38 113.75,-7.02 113.85,-6.61 113.95,-6.19 113.91,-5.77 113.87,-5.35 113.70,-4.96 113.53,-4.57 113.25,-4.25 112.96,-3.94 112.59,-3.73 112.22,-3.52 111.80,-3.45 111.38,-3.37 111.38,-3.37 111.38,-3.37 107.57,-3.09 103.75,-2.81 101.48,-2.63 99.20,-2.45 96.86,-2.48 94.52,-2.52 92.19,-2.62 89.85,-2.72 87.30,-2.92 84.74,-3.13 82.08,-3.12 79.43,-3.11 76.79,-3.08 74.16,-3.06 71.57,-2.95 68.97,-2.85 66.42,-2.69 63.87,-2.53 60.08,-2.18 56.30,-1.84 53.90,-1.50 51.50,-1.17 48.27,-0.75 45.03,-0.32 41.92,0.17 38.81,0.66 33.91,1.13 29.02,1.59 26.26,1.88 23.50,2.16 19.06,2.34 14.62,2.52 10.11,2.77 5.61,3.02 2.90,2.89 0.19,2.76 -0.13,2.74 -0.46,2.72 -0.78,2.63 -1.10,2.53 -1.39,2.36 -1.68,2.19 -1.92,1.96 -2.15,1.73 -2.33,1.44 -2.51,1.16 -2.61,0.84 -2.71,0.52 -2.74,0.19 -2.76,-0.13 -2.70,-0.46 -2.65,-0.79 -2.51,-1.10 -2.38,-1.40 -2.18,-1.67 -1.97,-1.93 -1.71,-2.14 -1.45,-2.35 -1.15,-2.49 -0.85,-2.63 -0.52,-2.69 -0.19,-2.76 -0.19,-2.76 L -0.19,-2.76 Z"></path></g><g transform="translate(423.99993896484375 471.3333282470703) rotate(0 29 -5)" stroke="none"><path fill="#1e1e1e" d="M -0.78,-2.52 Q -0.78,-2.52 2.02,-4.28 4.84,-6.05 9.40,-7.13 13.97,-8.22 18.58,-9.01 23.19,-9.81 27.78,-10.54 32.36,-11.27 34.48,-11.51 36.60,-11.74 40.45,-12.35 44.31,-12.96 47.40,-13.64 50.50,-14.32 53.72,-13.46 56.94,-12.59 57.26,-12.60 57.57,-12.61 57.88,-12.54 58.19,-12.48 58.48,-12.34 58.76,-12.20 59.00,-11.99 59.25,-11.79 59.43,-11.53 59.62,-11.28 59.74,-10.99 59.86,-10.69 59.91,-10.38 59.95,-10.07 59.92,-9.75 59.89,-9.44 59.79,-9.14 59.69,-8.84 59.51,-8.57 59.34,-8.31 59.11,-8.09 58.88,-7.87 58.60,-7.72 58.33,-7.57 58.02,-7.48 57.72,-7.40 57.04,-7.48 56.35,-7.56 55.99,-7.77 55.63,-7.99 55.35,-8.32 55.08,-8.64 54.92,-9.04 54.76,-9.43 54.74,-9.86 54.72,-10.28 54.83,-10.69 54.95,-11.10 55.18,-11.45 55.42,-11.80 55.76,-12.06 56.10,-12.32 56.50,-12.45 56.91,-12.59 57.33,-12.59 57.76,-12.59 58.16,-12.45 58.56,-12.31 58.90,-12.06 59.24,-11.80 59.47,-11.45 59.71,-11.10 59.83,-10.69 59.94,-10.28 59.92,-9.85 59.89,-9.43 59.74,-9.03 59.58,-8.64 59.30,-8.32 59.03,-7.99 58.66,-7.77 58.30,-7.55 57.88,-7.46 57.47,-7.37 57.05,-7.42 56.62,-7.46 56.24,-7.64 55.85,-7.82 55.54,-8.11 55.24,-8.41 55.04,-8.78 54.84,-9.16 54.77,-9.58 54.70,-10.00 54.77,-10.42 54.84,-10.84 55.04,-11.21 55.24,-11.59 55.55,-11.88 55.86,-12.17 56.24,-12.35 56.63,-12.53 57.05,-12.57 57.47,-12.62 57.21,-12.61 56.94,-12.59 57.26,-12.60 57.57,-12.61 57.88,-12.54 58.19,-12.48 58.48,-12.34 58.76,-12.20 59.00,-11.99 59.25,-11.79 59.43,-11.53 59.62,-11.28 59.74,-10.99 59.86,-10.69 59.91,-10.38 59.95,-10.07 59.92,-9.75 59.89,-9.44 59.79,-9.14 59.69,-8.84 59.51,-8.57 59.34,-8.31 59.11,-8.09 58.88,-7.87 58.60,-7.72 58.33,-7.57 58.02,-7.48 57.72,-7.40 55.86,-6.16 54.00,-4.93 51.48,-4.53 48.96,-4.14 45.34,-3.50 41.71,-2.86 37.81,-2.43 33.90,-1.99 29.36,-1.37 24.82,-0.75 20.36,-0.11 15.89,0.53 11.66,1.37 7.42,2.22 4.10,2.37 0.78,2.52 0.47,2.57 0.16,2.63 -0.15,2.61 -0.47,2.59 -0.77,2.50 -1.08,2.40 -1.35,2.24 -1.62,2.08 -1.85,1.85 -2.07,1.63 -2.24,1.35 -2.40,1.08 -2.50,0.78 -2.59,0.47 -2.61,0.16 -2.63,-0.15 -2.57,-0.47 -2.52,-0.78 -2.39,-1.07 -2.26,-1.36 -2.06,-1.61 -1.86,-1.86 -1.61,-2.06 -1.36,-2.25 -1.07,-2.39 -0.78,-2.52 -0.78,-2.52 L -0.78,-2.52 Z"></path></g><g transform="translate(494.66656494140625 454.6667022705078) rotate(0 0.00004999999999988347 0.00005000000000165983)" stroke="none"><path fill="#1e1e1e" d="M 4.25,-4.24 Q 4.25,-4.24 4.81,-3.46 5.38,-2.67 5.67,-1.74 5.95,-0.81 5.92,0.16 5.90,1.13 5.56,2.04 5.23,2.95 4.62,3.71 4.01,4.47 3.19,4.99 2.37,5.52 1.43,5.75 0.48,5.99 -0.48,5.91 -1.45,5.83 -2.34,5.44 -3.23,5.06 -3.96,4.41 -4.68,3.76 -5.16,2.91 -5.64,2.07 -5.82,1.11 -6.00,0.16 -5.87,-0.80 -5.74,-1.76 -5.31,-2.63 -4.88,-3.50 -4.19,-4.19 -3.50,-4.88 -2.63,-5.31 -1.76,-5.74 -0.79,-5.87 0.16,-6.00 1.11,-5.82 2.07,-5.64 2.92,-5.16 3.76,-4.68 4.41,-3.95 5.06,-3.23 5.44,-2.34 5.83,-1.44 5.91,-0.47 5.99,0.48 5.75,1.43 5.52,2.37 4.99,3.19 4.47,4.01 3.71,4.62 2.95,5.23 2.04,5.56 1.13,5.90 0.15,5.92 -0.81,5.95 -1.74,5.66 -2.67,5.38 -3.46,4.81 -4.25,4.24 -4.25,4.24 -4.24,4.25 -4.69,3.67 -5.14,3.10 -5.44,2.44 -5.73,1.78 -5.86,1.07 -5.99,0.36 -5.95,-0.36 -5.91,-1.08 -5.69,-1.77 -5.48,-2.46 -5.10,-3.08 -4.73,-3.70 -4.21,-4.21 -3.70,-4.73 -3.08,-5.10 -2.46,-5.48 -1.77,-5.69 -1.08,-5.91 -0.35,-5.95 0.36,-5.99 1.07,-5.86 1.78,-5.73 2.44,-5.44 3.10,-5.14 3.68,-4.69 4.25,-4.24 4.25,-4.24 L 4.25,-4.24 Z"></path></g><g transform="translate(459.33331298828125 440.6667022705078) rotate(0 14.6666259765625 9)" stroke="none"><path fill="#1e1e1e" d="M 1.67,-2.51 Q 1.67,-2.51 4.10,-1.17 6.52,0.17 9.21,1.99 11.89,3.81 14.28,4.96 16.67,6.10 18.47,7.32 20.27,8.54 22.93,9.52 25.59,10.50 28.48,13.42 31.36,16.33 31.57,16.70 31.79,17.07 31.87,17.48 31.95,17.90 31.90,18.32 31.85,18.74 31.66,19.13 31.48,19.51 31.18,19.81 30.88,20.11 30.50,20.31 30.12,20.50 29.70,20.56 29.28,20.62 28.86,20.54 28.44,20.47 28.07,20.26 27.70,20.06 27.41,19.74 27.13,19.43 26.96,19.04 26.79,18.65 26.75,18.23 26.71,17.81 26.81,17.39 26.91,16.98 27.13,16.62 27.36,16.26 27.69,15.99 28.02,15.72 28.41,15.57 28.81,15.42 29.24,15.40 29.66,15.39 30.07,15.51 30.47,15.63 30.82,15.88 31.17,16.12 31.42,16.46 31.67,16.81 31.80,17.21 31.93,17.62 31.92,18.04 31.91,18.47 31.77,18.87 31.63,19.27 31.36,19.60 31.10,19.93 30.74,20.17 30.39,20.40 29.98,20.50 29.56,20.61 29.14,20.58 28.72,20.55 28.32,20.38 27.93,20.22 27.61,19.94 27.30,19.66 27.30,19.66 27.30,19.66 25.65,19.51 24.00,19.36 21.79,18.19 19.58,17.03 16.20,15.07 12.81,13.11 10.08,11.27 7.36,9.42 5.01,7.69 2.67,5.95 0.49,4.23 -1.67,2.51 -1.95,2.27 -2.23,2.04 -2.44,1.74 -2.65,1.44 -2.79,1.11 -2.92,0.77 -2.97,0.40 -3.02,0.04 -2.98,-0.31 -2.94,-0.67 -2.82,-1.01 -2.70,-1.36 -2.49,-1.66 -2.29,-1.96 -2.02,-2.21 -1.75,-2.46 -1.43,-2.63 -1.11,-2.81 -0.76,-2.90 -0.41,-2.99 -0.04,-3.00 0.31,-3.00 0.67,-2.92 1.02,-2.84 1.35,-2.68 1.67,-2.51 1.67,-2.51 L 1.67,-2.51 Z"></path></g><g transform="translate(491.33331298828125 463.3333282470703) rotate(0 -14.666748046875 11.333343505859375)" stroke="none"><path fill="#1e1e1e" d="M -2.36,1.18 Q -2.36,1.18 -0.48,2.18 1.39,3.19 -0.32,4.72 -2.03,6.25 -4.72,8.90 -7.40,11.56 -10.32,14.42 -13.23,17.28 -15.80,19.61 -18.36,21.93 -20.86,23.79 -23.36,25.64 -26.43,26.33 -29.50,27.02 -29.91,27.14 -30.31,27.26 -30.74,27.25 -31.16,27.24 -31.56,27.09 -31.96,26.95 -32.29,26.68 -32.62,26.41 -32.85,26.05 -33.08,25.70 -33.18,25.28 -33.28,24.87 -33.24,24.45 -33.21,24.02 -33.04,23.63 -32.87,23.24 -32.59,22.93 -32.30,22.61 -31.93,22.40 -31.56,22.19 -31.15,22.12 -30.73,22.04 -30.31,22.09 -29.89,22.15 -29.51,22.34 -29.13,22.53 -28.83,22.83 -28.53,23.13 -28.34,23.51 -28.15,23.90 -28.09,24.32 -28.04,24.74 -28.12,25.16 -28.20,25.57 -28.41,25.94 -28.62,26.31 -28.93,26.59 -29.25,26.88 -29.64,27.04 -30.03,27.21 -30.46,27.25 -30.88,27.28 -31.29,27.18 -31.70,27.07 -32.06,26.84 -32.42,26.61 -32.69,26.28 -32.95,25.95 -33.10,25.55 -33.24,25.15 -33.25,24.73 -33.26,24.30 -33.14,23.90 -33.01,23.49 -32.76,23.15 -32.52,22.80 -32.17,22.55 -31.82,22.31 -31.82,22.31 -31.82,22.31 -31.54,20.69 -31.25,19.07 -29.13,17.41 -27.02,15.75 -24.48,14.10 -21.93,12.45 -19.47,10.08 -17.02,7.72 -13.93,4.90 -10.84,2.08 -8.27,-0.09 -5.70,-2.27 -3.93,-3.50 -2.15,-4.72 0.10,-2.95 2.36,-1.18 2.46,-0.88 2.57,-0.58 2.60,-0.26 2.64,0.05 2.59,0.36 2.55,0.68 2.43,0.97 2.31,1.27 2.12,1.53 1.94,1.79 1.69,1.99 1.45,2.20 1.17,2.34 0.88,2.48 0.57,2.55 0.26,2.62 -0.05,2.62 -0.36,2.61 -0.67,2.53 -0.98,2.45 -1.26,2.29 -1.54,2.14 -1.77,1.92 -2.01,1.71 -2.18,1.44 -2.36,1.18 -2.36,1.18 L -2.36,1.18 Z"></path></g><g transform="translate(491.99993896484375 454.00001525878906) rotate(0 6.33331298828125 106)" stroke="none"><path fill="#1e1e1e" d="M 2.72,0 Q 2.72,0 3.34,1.91 3.97,3.83 4.15,6.81 4.32,9.79 4.79,13.04 5.26,16.29 5.69,20.72 6.11,25.15 6.55,28.88 6.99,32.60 7.07,34.93 7.15,37.27 7.17,40.16 7.19,43.06 7.22,46.01 7.26,48.96 7.29,51.18 7.32,53.39 7.56,57.28 7.81,61.18 7.89,64.08 7.98,66.97 8.01,70.53 8.05,74.09 8.33,77.57 8.61,81.06 8.96,84.84 9.32,88.63 9.63,92.54 9.94,96.45 10.26,100.62 10.58,104.78 10.97,108.84 11.36,112.89 11.72,115.68 12.08,118.47 12.45,122.04 12.82,125.62 13.15,129.43 13.48,133.25 13.85,136.96 14.21,140.68 14.57,143.32 14.92,145.96 15.33,150.50 15.73,155.04 15.88,157.95 16.03,160.86 16.29,165.30 16.56,169.75 16.86,172.25 17.15,174.76 17.32,178.01 17.50,181.25 17.55,184.34 17.61,187.43 17.81,190.28 18.02,193.14 18.06,195.87 18.09,198.59 18.08,202.22 18.07,205.85 16.68,208.92 15.29,211.98 15.22,212.40 15.15,212.82 14.96,213.20 14.76,213.58 14.45,213.87 14.14,214.16 13.76,214.34 13.37,214.52 12.95,214.57 12.53,214.62 12.11,214.53 11.70,214.44 11.33,214.22 10.97,214.00 10.69,213.68 10.42,213.36 10.26,212.96 10.10,212.57 10.07,212.15 10.05,211.72 10.16,211.31 10.27,210.90 10.51,210.55 10.75,210.20 11.09,209.94 11.42,209.68 11.82,209.54 12.23,209.40 12.65,209.40 13.08,209.40 13.48,209.54 13.88,209.67 14.22,209.93 14.56,210.18 14.80,210.53 15.04,210.88 15.16,211.29 15.27,211.70 15.25,212.13 15.23,212.55 15.07,212.95 14.92,213.34 14.64,213.67 14.37,213.99 14.01,214.21 13.64,214.43 13.23,214.52 12.81,214.62 12.39,214.57 11.97,214.53 11.58,214.35 11.20,214.17 10.89,213.88 10.58,213.59 10.38,213.22 10.18,212.84 10.11,212.42 10.03,212.00 10.04,212.01 10.04,212.01 8.62,208.98 7.20,205.95 7.09,202.47 6.97,198.98 6.82,196.47 6.67,193.95 6.44,190.79 6.22,187.63 6.17,184.68 6.12,181.72 6.04,178.87 5.95,176.02 5.65,173.20 5.35,170.38 5.12,165.90 4.88,161.41 4.74,158.65 4.60,155.88 4.34,151.58 4.08,147.28 3.77,144.46 3.46,141.64 3.16,137.91 2.85,134.18 2.52,130.40 2.19,126.62 1.89,123.15 1.60,119.68 1.29,116.70 0.99,113.73 0.72,109.65 0.45,105.57 0.13,101.41 -0.19,97.26 -0.50,93.31 -0.81,89.37 -1.01,85.49 -1.22,81.62 -1.35,77.90 -1.48,74.18 -1.52,70.72 -1.55,67.25 -1.63,64.44 -1.71,61.64 -1.86,57.52 -2.00,53.40 -1.97,51.20 -1.95,48.99 -1.93,46.05 -1.91,43.12 -1.93,40.28 -1.95,37.44 -2.02,33.77 -2.09,30.09 -2.28,27.86 -2.48,25.63 -2.87,21.54 -3.26,17.46 -3.41,14.09 -3.56,10.71 -3.76,7.27 -3.97,3.83 -3.34,1.91 -2.72,0 -2.68,-0.32 -2.64,-0.65 -2.52,-0.95 -2.41,-1.26 -2.22,-1.53 -2.03,-1.80 -1.79,-2.02 -1.54,-2.24 -1.25,-2.39 -0.96,-2.54 -0.64,-2.62 -0.32,-2.70 0.00,-2.70 0.32,-2.70 0.64,-2.62 0.96,-2.54 1.25,-2.39 1.54,-2.24 1.79,-2.02 2.03,-1.80 2.22,-1.53 2.41,-1.26 2.52,-0.95 2.64,-0.65 2.68,-0.32 2.72,0.00 2.72,0.00 L 2.72,0 Z"></path></g><g transform="translate(463.33331298828125 669.3333282470703) rotate(0 42.6666259765625 -1.666656494140625)" stroke="none"><path fill="#1e1e1e" d="M -0.18,-2.76 Q -0.18,-2.76 2.64,-3.57 5.48,-4.38 9.43,-4.78 13.38,-5.17 17.42,-5.77 21.46,-6.36 24.15,-6.65 26.83,-6.94 29.86,-7.07 32.88,-7.21 36.08,-7.32 39.28,-7.43 42.74,-7.51 46.21,-7.60 49.60,-7.61 52.99,-7.62 55.38,-7.62 57.78,-7.62 60.35,-7.85 62.92,-8.08 67.93,-8.33 72.93,-8.58 76.70,-8.58 80.47,-8.58 82.90,-7.27 85.32,-5.95 85.74,-5.89 86.16,-5.82 86.54,-5.62 86.91,-5.42 87.21,-5.11 87.50,-4.81 87.68,-4.42 87.86,-4.04 87.90,-3.61 87.95,-3.19 87.86,-2.78 87.77,-2.36 87.55,-2.00 87.33,-1.63 87.01,-1.36 86.69,-1.08 86.29,-0.92 85.90,-0.76 85.47,-0.74 85.05,-0.72 84.64,-0.83 84.23,-0.94 83.88,-1.18 83.52,-1.42 83.27,-1.76 83.01,-2.09 82.87,-2.50 82.74,-2.90 82.74,-3.32 82.74,-3.75 82.87,-4.15 83.01,-4.56 83.26,-4.89 83.52,-5.23 83.87,-5.47 84.22,-5.71 84.63,-5.82 85.04,-5.94 85.46,-5.92 85.89,-5.89 86.28,-5.74 86.68,-5.58 87.00,-5.31 87.33,-5.03 87.55,-4.67 87.77,-4.30 87.86,-3.89 87.95,-3.47 87.91,-3.05 87.86,-2.63 87.68,-2.24 87.50,-1.86 87.21,-1.55 86.92,-1.24 86.55,-1.04 86.17,-0.84 85.75,-0.77 85.33,-0.70 85.33,-0.70 85.33,-0.70 82.92,0.61 80.50,1.93 76.78,1.97 73.06,2.01 68.34,2.00 63.63,1.99 60.71,2.14 57.80,2.30 55.41,2.31 53.01,2.31 49.64,2.32 46.27,2.33 42.86,2.29 39.44,2.25 36.36,2.25 33.29,2.24 30.56,2.35 27.84,2.46 25.13,2.75 22.41,3.05 18.29,3.11 14.16,3.18 10.09,3.40 6.01,3.62 3.10,3.19 0.18,2.76 -0.14,2.74 -0.48,2.72 -0.80,2.62 -1.12,2.53 -1.40,2.35 -1.69,2.18 -1.93,1.95 -2.16,1.72 -2.34,1.43 -2.51,1.15 -2.61,0.83 -2.71,0.51 -2.74,0.18 -2.76,-0.15 -2.70,-0.47 -2.64,-0.80 -2.51,-1.11 -2.37,-1.41 -2.17,-1.68 -1.96,-1.94 -1.70,-2.15 -1.44,-2.35 -1.14,-2.49 -0.83,-2.63 -0.51,-2.69 -0.18,-2.76 -0.18,-2.76 L -0.18,-2.76 Z"></path></g><g transform="translate(485.33331298828125 688.6667022705078) rotate(0 22 0.33331298828125)" stroke="none"><path fill="#1e1e1e" d="M 0.26,-2.67 Q 0.26,-2.67 2.27,-3.40 4.28,-4.12 8.03,-4.25 11.78,-4.38 15.15,-4.80 18.53,-5.22 22.89,-5.37 27.25,-5.51 29.57,-5.60 31.89,-5.68 35.43,-5.76 38.97,-5.84 42.48,-4.56 45.99,-3.29 46.41,-3.22 46.83,-3.15 47.21,-2.95 47.58,-2.75 47.88,-2.44 48.17,-2.14 48.35,-1.75 48.53,-1.37 48.57,-0.94 48.62,-0.52 48.53,-0.11 48.44,0.30 48.22,0.66 48.00,1.03 47.67,1.30 47.35,1.58 46.96,1.74 46.56,1.89 46.14,1.92 45.71,1.94 45.30,1.83 44.89,1.71 44.54,1.47 44.19,1.24 43.93,0.90 43.67,0.56 43.54,0.16 43.40,-0.24 43.40,-0.66 43.40,-1.09 43.54,-1.49 43.67,-1.89 43.93,-2.23 44.19,-2.57 44.54,-2.81 44.89,-3.05 45.30,-3.16 45.71,-3.27 46.13,-3.25 46.56,-3.23 46.95,-3.07 47.35,-2.91 47.67,-2.64 48.00,-2.36 48.22,-2.00 48.43,-1.63 48.53,-1.22 48.62,-0.80 48.57,-0.38 48.53,0.03 48.35,0.42 48.17,0.80 47.88,1.11 47.58,1.42 47.21,1.62 46.83,1.82 46.41,1.89 46.00,1.95 46.00,1.95 46.00,1.95 42.49,3.23 38.99,4.51 35.48,4.46 31.96,4.40 29.68,4.35 27.39,4.30 23.50,4.42 19.61,4.53 16.03,4.69 12.44,4.84 7.91,4.87 3.38,4.89 1.55,3.78 -0.26,2.67 -0.58,2.60 -0.89,2.53 -1.18,2.38 -1.47,2.24 -1.72,2.03 -1.97,1.82 -2.16,1.56 -2.35,1.29 -2.47,0.99 -2.59,0.69 -2.63,0.37 -2.68,0.05 -2.65,-0.26 -2.62,-0.58 -2.51,-0.89 -2.40,-1.19 -2.22,-1.46 -2.04,-1.73 -1.80,-1.95 -1.57,-2.17 -1.28,-2.33 -1.00,-2.49 -0.69,-2.57 -0.37,-2.65 -0.05,-2.66 0.26,-2.67 0.26,-2.67 L 0.26,-2.67 Z"></path></g><g transform="translate(493.99993896484375 712.0000152587891) rotate(0 15.66668701171875 -2.333343505859375)" stroke="none"><path fill="#1e1e1e" d="M -0.68,-2.74 Q -0.68,-2.74 2.24,-4.04 5.18,-5.34 8.06,-5.71 10.94,-6.07 14.52,-6.65 18.11,-7.23 20.88,-7.70 23.65,-8.16 27.43,-7.73 31.22,-7.29 31.64,-7.23 32.06,-7.18 32.45,-7.00 32.83,-6.82 33.14,-6.52 33.44,-6.22 33.63,-5.85 33.83,-5.47 33.89,-5.05 33.95,-4.63 33.88,-4.21 33.81,-3.79 33.60,-3.42 33.40,-3.04 33.09,-2.76 32.77,-2.47 32.39,-2.29 32.00,-2.12 31.57,-2.08 31.15,-2.04 30.74,-2.14 30.32,-2.23 29.96,-2.46 29.60,-2.68 29.33,-3.01 29.06,-3.34 28.91,-3.73 28.76,-4.13 28.74,-4.56 28.72,-4.98 28.84,-5.39 28.96,-5.80 29.20,-6.15 29.45,-6.49 29.79,-6.75 30.13,-7.00 30.53,-7.13 30.94,-7.26 31.36,-7.25 31.79,-7.25 32.19,-7.11 32.59,-6.97 32.92,-6.70 33.26,-6.44 33.49,-6.09 33.73,-5.73 33.84,-5.32 33.94,-4.91 33.91,-4.49 33.89,-4.06 33.72,-3.67 33.56,-3.28 33.28,-2.96 33.00,-2.64 32.63,-2.42 32.27,-2.21 31.85,-2.12 31.43,-2.04 31.44,-2.04 31.44,-2.04 29.43,-1.04 27.43,-0.04 24.74,0.30 22.05,0.64 19.13,0.88 16.21,1.13 14.06,1.42 11.90,1.70 9.49,1.99 7.08,2.27 3.88,2.50 0.68,2.74 0.34,2.78 0.00,2.82 -0.32,2.78 -0.66,2.74 -0.98,2.62 -1.30,2.50 -1.58,2.31 -1.86,2.12 -2.09,1.86 -2.32,1.61 -2.48,1.31 -2.63,1.01 -2.72,0.68 -2.80,0.34 -2.80,0.00 -2.80,-0.33 -2.72,-0.66 -2.64,-0.99 -2.48,-1.29 -2.33,-1.59 -2.10,-1.85 -1.88,-2.10 -1.60,-2.30 -1.32,-2.49 -1.00,-2.62 -0.68,-2.74 -0.68,-2.74 L -0.68,-2.74 Z"></path></g><g transform="translate(497.33331298828125 321.3333282470703) rotate(0 -9 6.333343505859375)" stroke="none"><path fill="#1e1e1e" d="M 0,2.64 Q 0,2.64 -1.90,3.01 -3.80,3.39 -5.83,4.17 -7.87,4.95 -10.02,6.44 -12.16,7.92 -12.95,10.00 -13.74,12.08 -10.97,12.73 -8.20,13.39 -5.89,12.80 -3.58,12.22 -2.25,10.47 -0.91,8.72 -1.69,6.70 -2.48,4.68 -4.97,2.72 -7.47,0.76 -9.72,0.63 -11.98,0.50 -13.68,1.86 -15.39,3.23 -16.88,5.33 -18.36,7.43 -17.24,9.28 -16.11,11.13 -13.51,12.00 -10.91,12.87 -8.70,11.87 -6.49,10.87 -6.05,8.42 -5.60,5.97 -7.77,4.25 -9.95,2.53 -11.37,4.94 -12.80,7.35 -10.38,6.42 -7.97,5.49 -5.84,4.96 -3.72,4.44 -1.37,3.29 0.97,2.15 3.26,2.11 5.55,2.07 5.97,2.07 6.40,2.07 6.80,2.20 7.20,2.33 7.55,2.58 7.89,2.84 8.13,3.19 8.37,3.54 8.49,3.95 8.60,4.35 8.58,4.78 8.57,5.20 8.41,5.60 8.26,6.00 7.99,6.32 7.71,6.65 7.35,6.87 6.99,7.09 6.57,7.19 6.16,7.28 5.74,7.24 5.31,7.20 4.93,7.02 4.54,6.85 4.23,6.56 3.92,6.27 3.72,5.90 3.51,5.52 3.44,5.10 3.37,4.68 3.43,4.26 3.50,3.84 3.69,3.47 3.89,3.09 4.20,2.80 4.50,2.50 4.89,2.32 5.27,2.14 5.69,2.09 6.11,2.04 6.53,2.13 6.95,2.21 7.31,2.43 7.68,2.65 7.96,2.97 8.23,3.29 8.39,3.68 8.56,4.07 8.58,4.50 8.61,4.92 8.50,5.33 8.39,5.74 8.15,6.10 7.92,6.45 7.58,6.71 7.25,6.97 6.84,7.11 6.44,7.25 6.44,7.25 6.44,7.25 5.84,8.39 5.24,9.54 3.48,10.89 1.72,12.24 -0.90,13.38 -3.54,14.52 -6.20,15.13 -8.85,15.74 -12.71,15.25 -16.56,14.76 -18.52,13.22 -20.48,11.69 -21.43,8.18 -22.37,4.68 -21.69,2.50 -21.01,0.32 -19.27,-1.85 -17.54,-4.02 -14.82,-5.50 -12.10,-6.97 -9.18,-6.88 -6.27,-6.78 -3.75,-5.64 -1.23,-4.50 0.64,-2.38 2.52,-0.26 3.50,2.97 4.48,6.22 4.18,9.51 3.88,12.81 2.10,15.56 0.32,18.31 -2.08,20.11 -4.49,21.91 -7.13,22.39 -9.77,22.88 -12.37,22.59 -14.96,22.31 -17.59,21.36 -20.21,20.41 -22.38,18.74 -24.54,17.07 -26.06,15.14 -27.58,13.21 -28.08,10.23 -28.59,7.25 -27.72,4.73 -26.84,2.22 -25.44,0.18 -24.03,-1.86 -21.87,-4.01 -19.72,-6.16 -16.94,-7.67 -14.16,-9.18 -10.80,-9.50 -7.43,-9.81 -4.68,-8.64 -1.94,-7.46 0.71,-5.39 3.37,-3.31 4.83,-1.49 6.28,0.32 7.31,2.71 8.34,5.09 8.18,8.66 8.02,12.22 6.93,14.22 5.85,16.22 4.17,17.82 2.50,19.41 0.59,20.38 -1.32,21.34 -4.06,21.91 -6.81,22.47 -9.45,22.24 -12.09,22.01 -14.56,20.93 -17.03,19.85 -18.86,18.08 -20.68,16.31 -21.44,14.09 -22.19,11.88 -21.72,9.31 -21.25,6.74 -19.82,4.84 -18.39,2.94 -16.43,1.47 -14.46,0.00 -12.23,-1.00 -10.01,-2.00 -6.93,-2.70 -3.86,-3.39 -1.93,-3.01 0,-2.64 0.31,-2.60 0.63,-2.56 0.92,-2.45 1.22,-2.33 1.48,-2.15 1.75,-1.97 1.96,-1.73 2.17,-1.50 2.32,-1.21 2.46,-0.93 2.54,-0.62 2.62,-0.31 2.62,0.00 2.62,0.31 2.54,0.62 2.46,0.93 2.32,1.21 2.17,1.50 1.96,1.73 1.75,1.97 1.48,2.15 1.22,2.33 0.92,2.45 0.63,2.56 0.31,2.60 -0.00,2.64 -0.00,2.64 L 0,2.64 Z"></path></g><g transform="translate(515.3333129882812 323.3333282470703) rotate(0 69.33331298828125 -3)" stroke="none"><path fill="#1e1e1e" d="M -0.32,-2.94 Q -0.32,-2.94 3.10,-3.45 6.54,-3.96 8.90,-4.34 11.27,-4.72 15.66,-5.16 20.05,-5.60 23.16,-5.96 26.28,-6.33 31.52,-6.77 36.77,-7.20 40.35,-7.38 43.94,-7.55 48.28,-7.86 52.63,-8.17 57.43,-8.33 62.24,-8.49 66.87,-8.77 71.51,-9.06 76.25,-9.19 80.99,-9.33 84.34,-9.39 87.68,-9.45 91.50,-9.69 95.32,-9.93 100.12,-10.06 104.93,-10.20 109.45,-10.27 113.97,-10.35 116.85,-10.38 119.73,-10.41 123.25,-10.47 126.78,-10.52 130.89,-10.57 134.99,-10.62 137.34,-9.18 139.69,-7.74 140.05,-7.52 140.41,-7.29 140.68,-6.96 140.94,-6.63 141.09,-6.23 141.24,-5.83 141.25,-5.40 141.27,-4.98 141.14,-4.57 141.02,-4.17 140.77,-3.82 140.52,-3.48 140.18,-3.23 139.83,-2.98 139.43,-2.85 139.02,-2.73 138.60,-2.74 138.17,-2.75 137.77,-2.89 137.37,-3.04 137.04,-3.30 136.71,-3.57 136.48,-3.93 136.25,-4.28 136.15,-4.70 136.04,-5.11 136.08,-5.53 136.11,-5.96 136.28,-6.35 136.45,-6.74 136.73,-7.05 137.01,-7.37 137.38,-7.58 137.75,-7.79 138.17,-7.87 138.58,-7.95 139.01,-7.90 139.43,-7.84 139.81,-7.65 140.19,-7.47 140.49,-7.17 140.79,-6.87 140.98,-6.49 141.17,-6.11 141.23,-5.68 141.29,-5.26 141.21,-4.85 141.13,-4.43 140.92,-4.06 140.71,-3.69 140.40,-3.40 140.08,-3.12 139.69,-2.95 139.30,-2.78 138.88,-2.75 138.45,-2.71 138.04,-2.81 137.63,-2.91 137.63,-2.91 137.63,-2.91 136.31,-2.14 135.00,-1.37 130.90,-1.41 126.80,-1.45 123.29,-1.49 119.78,-1.53 116.91,-1.53 114.05,-1.53 109.57,-1.53 105.09,-1.53 100.43,-1.48 95.78,-1.44 91.79,-1.26 87.79,-1.08 84.48,-1.05 81.17,-1.03 76.55,-0.96 71.92,-0.90 67.17,-0.71 62.42,-0.52 57.75,-0.46 53.08,-0.41 48.66,-0.21 44.24,-0.02 40.74,0.08 37.25,0.19 32.13,0.43 27.02,0.66 23.81,0.97 20.60,1.28 16.41,1.52 12.22,1.76 9.73,2.10 7.25,2.43 3.79,2.68 0.32,2.94 -0.02,2.93 -0.38,2.93 -0.73,2.84 -1.07,2.75 -1.39,2.58 -1.70,2.41 -1.97,2.17 -2.23,1.93 -2.43,1.64 -2.63,1.34 -2.75,1.01 -2.88,0.67 -2.91,0.32 -2.95,-0.03 -2.91,-0.38 -2.86,-0.73 -2.73,-1.06 -2.60,-1.40 -2.40,-1.69 -2.19,-1.98 -1.92,-2.21 -1.65,-2.45 -1.33,-2.61 -1.02,-2.77 -0.67,-2.85 -0.32,-2.94 -0.32,-2.94 L -0.32,-2.94 Z"></path></g><g transform="translate(657.3333129882812 322.6666717529297) rotate(0 9.6666259765625 -2.666656494140625)" stroke="none"><path fill="#1e1e1e" d="M 2.68,0 Q 2.68,0 3.00,1.70 3.32,3.41 5.69,4.31 8.07,5.20 10.29,4.46 12.51,3.71 14.09,2.19 15.68,0.67 16.93,-1.23 18.18,-3.15 17.98,-5.31 17.79,-7.47 14.96,-8.59 12.12,-9.71 9.12,-8.88 6.11,-8.05 4.05,-6.70 2.00,-5.35 1.95,-3.83 1.91,-2.30 2.25,-2.04 2.58,-1.78 2.82,-1.43 3.06,-1.08 3.17,-0.67 3.28,-0.26 3.25,0.16 3.22,0.58 3.06,0.98 2.90,1.37 2.62,1.69 2.34,2.01 1.98,2.23 1.61,2.44 1.20,2.53 0.78,2.62 0.36,2.57 -0.05,2.52 -0.44,2.34 -0.82,2.16 -1.13,1.86 -1.43,1.57 -1.63,1.19 -1.82,0.81 -1.89,0.39 -1.95,-0.02 -1.88,-0.44 -1.81,-0.86 -1.61,-1.23 -1.41,-1.60 -1.09,-1.89 -0.78,-2.18 -0.40,-2.36 -0.01,-2.53 0.40,-2.57 0.83,-2.62 1.24,-2.52 1.66,-2.43 2.02,-2.20 2.38,-1.98 2.65,-1.66 2.92,-1.33 3.08,-0.93 3.23,-0.54 3.25,-0.11 3.27,0.30 3.15,0.71 3.04,1.12 2.79,1.47 2.55,1.82 2.21,2.07 1.87,2.33 1.47,2.46 1.06,2.59 0.64,2.59 0.21,2.58 -0.18,2.44 -0.58,2.30 -0.58,2.30 -0.58,2.30 -3.75,1.28 -6.93,0.26 -7.64,-2.71 -8.36,-5.69 -7.00,-8.49 -5.63,-11.29 -3.35,-13.07 -1.06,-14.84 2.20,-16.45 5.48,-18.06 9.14,-18.66 12.81,-19.26 15.09,-18.98 17.38,-18.71 19.77,-17.35 22.16,-15.99 24.02,-14.02 25.88,-12.04 26.84,-9.23 27.81,-6.42 27.43,-3.75 27.05,-1.08 26.04,0.93 25.02,2.95 23.34,5.03 21.66,7.10 19.60,8.78 17.54,10.45 15.01,11.42 12.48,12.39 10.11,12.85 7.74,13.31 5.35,12.96 2.95,12.60 0.69,10.86 -1.56,9.12 -2.44,6.30 -3.32,3.48 -3.00,1.74 -2.68,0 -2.64,-0.32 -2.60,-0.64 -2.49,-0.94 -2.37,-1.24 -2.19,-1.51 -2.01,-1.78 -1.76,-1.99 -1.52,-2.21 -1.23,-2.36 -0.95,-2.51 -0.63,-2.58 -0.32,-2.66 0.00,-2.66 0.32,-2.66 0.63,-2.58 0.95,-2.51 1.23,-2.36 1.52,-2.21 1.76,-1.99 2.01,-1.78 2.19,-1.51 2.37,-1.24 2.49,-0.94 2.60,-0.64 2.64,-0.32 2.68,0.00 2.68,0.00 L 2.68,0 Z"></path></g><g transform="translate(706.6665649414062 302.6666717529297) rotate(0 20.3333740234375 0)" stroke="none"><path fill="#1e1e1e" d="M -2.65,0.37 Q -2.65,0.37 -3.38,-0.90 -4.10,-2.18 -3.22,-5.46 -2.34,-8.75 -0.99,-11.20 0.35,-13.66 1.52,-15.49 2.68,-17.33 4.25,-18.78 5.82,-20.23 8.19,-21.09 10.56,-21.94 13.03,-20.52 15.49,-19.10 16.56,-16.33 17.63,-13.56 17.91,-10.23 18.19,-6.89 18.04,-4.15 17.88,-1.41 17.81,1.68 17.73,4.79 17.98,7.64 18.24,10.48 18.84,13.52 19.45,16.55 20.31,18.80 21.17,21.04 22.90,22.53 24.64,24.01 26.74,23.30 28.84,22.59 29.61,20.56 30.37,18.52 31.59,15.47 32.80,12.41 33.56,8.98 34.32,5.55 34.65,3.39 34.98,1.22 35.15,-2.26 35.32,-5.75 35.55,-8.12 35.78,-10.49 35.89,-13.89 36.00,-17.29 36.29,-20.48 36.58,-23.68 38.33,-26.10 40.09,-28.51 40.19,-28.81 40.29,-29.11 40.45,-29.38 40.62,-29.65 40.85,-29.87 41.08,-30.09 41.35,-30.25 41.63,-30.41 41.93,-30.50 42.23,-30.59 42.55,-30.60 42.87,-30.61 43.18,-30.55 43.49,-30.49 43.77,-30.35 44.06,-30.22 44.31,-30.02 44.55,-29.82 44.74,-29.57 44.93,-29.31 45.06,-29.02 45.18,-28.73 45.23,-28.42 45.29,-28.11 45.26,-27.79 45.24,-27.48 45.17,-28.22 45.10,-28.96 45.19,-28.55 45.28,-28.13 45.24,-27.71 45.19,-27.29 45.01,-26.90 44.83,-26.52 44.54,-26.21 44.25,-25.90 43.87,-25.70 43.50,-25.50 43.08,-25.44 42.66,-25.37 42.24,-25.44 41.82,-25.51 41.44,-25.71 41.07,-25.91 40.78,-26.22 40.48,-26.53 40.31,-26.91 40.13,-27.30 40.08,-27.72 40.04,-28.14 40.13,-28.56 40.22,-28.97 40.44,-29.34 40.66,-29.70 40.99,-29.97 41.31,-30.25 41.71,-30.41 42.10,-30.56 42.53,-30.58 42.95,-30.61 43.36,-30.49 43.77,-30.38 44.12,-30.14 44.47,-29.90 44.73,-29.56 44.99,-29.22 45.12,-28.82 45.25,-28.41 45.25,-27.99 45.25,-27.56 45.12,-27.16 44.98,-26.76 44.72,-26.42 44.46,-26.08 44.11,-25.85 43.76,-25.61 43.35,-25.50 42.94,-25.38 42.52,-25.41 42.09,-25.43 41.70,-25.59 41.30,-25.75 40.98,-26.02 40.66,-26.30 40.37,-27.41 40.09,-28.51 40.19,-28.81 40.29,-29.11 40.45,-29.38 40.62,-29.65 40.85,-29.87 41.08,-30.09 41.35,-30.25 41.63,-30.41 41.93,-30.50 42.23,-30.59 42.55,-30.60 42.87,-30.61 43.18,-30.55 43.49,-30.49 43.77,-30.35 44.06,-30.22 44.31,-30.02 44.55,-29.82 44.74,-29.57 44.93,-29.31 45.06,-29.02 45.18,-28.73 45.23,-28.42 45.29,-28.11 45.26,-27.79 45.24,-27.48 45.72,-26.10 46.20,-24.73 45.91,-22.45 45.62,-20.17 45.37,-17.10 45.11,-14.03 44.80,-9.74 44.48,-5.46 44.22,-1.39 43.96,2.67 43.57,4.95 43.18,7.22 42.22,11.37 41.27,15.51 39.92,18.96 38.57,22.41 37.18,25.22 35.80,28.02 32.64,30.04 29.48,32.07 26.34,32.42 23.21,32.78 20.76,31.77 18.31,30.77 16.55,29.03 14.78,27.29 13.32,24.61 11.86,21.93 10.94,18.96 10.01,16.00 9.77,13.49 9.53,10.99 9.27,7.82 9.02,4.65 9.14,1.33 9.26,-1.98 9.44,-4.26 9.62,-6.53 8.83,-9.02 8.05,-11.51 6.93,-9.60 5.82,-7.69 4.58,-5.44 3.34,-3.18 3.00,-1.78 2.65,-0.37 2.66,-0.05 2.67,0.26 2.60,0.58 2.53,0.89 2.38,1.18 2.24,1.47 2.03,1.72 1.82,1.97 1.56,2.16 1.29,2.35 0.99,2.47 0.69,2.59 0.37,2.63 0.05,2.68 -0.26,2.65 -0.58,2.62 -0.89,2.51 -1.19,2.40 -1.46,2.22 -1.73,2.04 -1.95,1.80 -2.17,1.57 -2.33,1.28 -2.49,1.00 -2.57,0.69 -2.65,0.37 -2.65,0.37 L -2.65,0.37 Z"></path></g><g transform="translate(764.6665649414062 322.00001525878906) rotate(0 1.00006103515625 8.999984741210938)" stroke="none"><path fill="#1e1e1e" d="M 1.89,1.89 Q 1.89,1.89 0.57,3.63 -0.75,5.36 -2.04,7.51 -3.33,9.65 -3.74,11.90 -4.14,14.15 -2.40,15.51 -0.66,16.87 1.63,16.24 3.93,15.62 5.46,14.06 6.99,12.50 7.55,9.99 8.12,7.48 6.99,5.42 5.87,3.35 3.94,2.34 2.02,1.32 -0.88,1.85 -3.79,2.38 -6.22,3.37 -8.66,4.36 -8.98,4.63 -9.30,4.91 -9.70,5.07 -10.09,5.23 -10.52,5.25 -10.94,5.27 -11.35,5.16 -11.76,5.05 -12.11,4.81 -12.46,4.57 -12.72,4.23 -12.98,3.90 -13.12,3.49 -13.25,3.09 -13.25,2.67 -13.25,2.24 -13.12,1.84 -12.98,1.44 -12.73,1.10 -12.47,0.76 -12.12,0.52 -11.77,0.28 -11.36,0.17 -10.95,0.05 -10.53,0.07 -10.10,0.10 -9.71,0.25 -9.31,0.41 -8.99,0.68 -8.66,0.96 -8.44,1.32 -8.22,1.68 -8.13,2.10 -8.04,2.51 -8.08,2.94 -8.13,3.36 -8.31,3.75 -8.48,4.13 -8.78,4.44 -9.07,4.75 -9.44,4.95 -9.82,5.15 -10.24,5.22 -10.66,5.29 -11.08,5.22 -11.50,5.15 -11.87,4.95 -12.25,4.76 -12.54,4.45 -12.83,4.14 -13.01,3.75 -13.19,3.37 -13.24,2.95 -13.28,2.52 -13.19,2.11 -13.10,1.69 -12.89,1.33 -12.67,0.96 -12.67,0.97 -12.67,0.97 -9.38,-2.65 -6.09,-6.28 -1.97,-6.83 2.14,-7.38 5.31,-6.13 8.47,-4.89 11.36,-2.28 14.24,0.33 15.18,2.68 16.11,5.02 16.16,7.73 16.21,10.43 15.32,13.00 14.44,15.57 12.99,17.83 11.55,20.09 9.15,22.00 6.75,23.91 4.61,24.50 2.47,25.09 -0.62,24.83 -3.72,24.57 -6.22,22.90 -8.73,21.23 -10.03,18.67 -11.33,16.11 -11.32,13.88 -11.31,11.66 -10.22,8.71 -9.13,5.76 -7.25,3.26 -5.37,0.77 -3.63,-0.56 -1.89,-1.89 -1.64,-2.09 -1.38,-2.29 -1.09,-2.43 -0.79,-2.56 -0.48,-2.62 -0.16,-2.68 0.16,-2.66 0.48,-2.64 0.79,-2.54 1.10,-2.44 1.37,-2.28 1.65,-2.11 1.88,-1.88 2.11,-1.65 2.28,-1.37 2.44,-1.10 2.54,-0.79 2.64,-0.48 2.66,-0.16 2.68,0.16 2.62,0.48 2.56,0.79 2.43,1.09 2.29,1.38 2.09,1.64 1.89,1.89 1.89,1.89 L 1.89,1.89 Z"></path></g><g transform="translate(459.33331298828125 100.66667175292969) rotate(0 -2.66668701171875 12.999992370605469)" stroke="none"><path fill="#1e1e1e" d="M -2.66,0.66 Q -2.66,0.66 -3.54,-0.74 -4.41,-2.15 -2.53,0.44 -0.64,3.03 -0.16,6.74 0.31,10.45 0.58,12.83 0.85,15.21 1.02,18.48 1.20,21.75 1.57,24.19 1.94,26.63 2.00,29.17 2.06,31.71 2.27,32.08 2.47,32.46 2.55,32.88 2.62,33.29 2.56,33.71 2.49,34.13 2.30,34.51 2.11,34.89 1.80,35.19 1.50,35.48 1.11,35.67 0.73,35.85 0.31,35.90 -0.10,35.95 -0.52,35.87 -0.94,35.78 -1.30,35.57 -1.67,35.35 -1.95,35.03 -2.23,34.71 -2.39,34.32 -2.55,33.93 -2.58,33.50 -2.61,33.08 -2.50,32.67 -2.39,32.26 -2.16,31.90 -1.93,31.55 -1.59,31.29 -1.26,31.02 -0.85,30.88 -0.45,30.74 -0.03,30.74 0.39,30.73 0.79,30.86 1.20,30.99 1.54,31.24 1.88,31.50 2.12,31.85 2.36,32.19 2.48,32.60 2.60,33.01 2.58,33.44 2.57,33.86 2.42,34.26 2.26,34.65 1.99,34.98 1.72,35.31 1.36,35.53 1.00,35.76 0.58,35.85 0.17,35.95 -0.24,35.91 -0.66,35.87 -1.05,35.69 -1.44,35.52 -1.75,35.23 -2.07,34.94 -2.07,34.95 -2.06,34.95 -4.41,32.33 -6.76,29.72 -7.35,26.83 -7.95,23.94 -7.99,21.61 -8.03,19.28 -8.32,16.26 -8.60,13.23 -8.73,10.65 -8.86,8.07 -9.39,4.61 -9.91,1.15 -9.79,-1.86 -9.67,-4.88 -7.10,-7.77 -4.54,-10.66 -1.78,-9.91 0.96,-9.16 1.92,-6.57 2.88,-3.97 2.77,-2.32 2.66,-0.66 2.70,-0.33 2.74,-0.00 2.70,0.31 2.66,0.64 2.55,0.95 2.43,1.26 2.24,1.54 2.06,1.81 1.81,2.03 1.56,2.25 1.27,2.40 0.98,2.56 0.66,2.64 0.33,2.72 0.00,2.72 -0.32,2.72 -0.64,2.64 -0.96,2.57 -1.25,2.41 -1.55,2.26 -1.80,2.04 -2.04,1.82 -2.23,1.55 -2.42,1.28 -2.54,0.97 -2.66,0.66 -2.66,0.66 L -2.66,0.66 Z"></path></g><g transform="translate(446.66656494140625 94) rotate(0 0.00005000000000165983 0.00004999999998744897)" stroke="none"><path fill="#1e1e1e" d="M 4.25,-4.24 Q 4.25,-4.24 4.81,-3.46 5.38,-2.67 5.67,-1.74 5.95,-0.81 5.92,0.16 5.90,1.13 5.56,2.04 5.23,2.95 4.62,3.71 4.01,4.47 3.19,4.99 2.37,5.52 1.43,5.75 0.48,5.99 -0.48,5.91 -1.45,5.83 -2.34,5.44 -3.23,5.06 -3.96,4.41 -4.68,3.76 -5.16,2.91 -5.64,2.07 -5.82,1.11 -6.00,0.16 -5.87,-0.80 -5.74,-1.76 -5.31,-2.63 -4.88,-3.50 -4.19,-4.19 -3.50,-4.88 -2.63,-5.31 -1.76,-5.74 -0.79,-5.87 0.16,-6.00 1.11,-5.82 2.07,-5.64 2.92,-5.16 3.76,-4.68 4.41,-3.95 5.06,-3.23 5.44,-2.34 5.83,-1.44 5.91,-0.47 5.99,0.48 5.75,1.43 5.52,2.37 4.99,3.19 4.47,4.01 3.71,4.62 2.95,5.23 2.04,5.56 1.13,5.90 0.15,5.92 -0.81,5.95 -1.74,5.66 -2.67,5.38 -3.46,4.81 -4.25,4.24 -4.25,4.24 -4.24,4.25 -4.69,3.67 -5.14,3.10 -5.44,2.44 -5.73,1.78 -5.86,1.07 -5.99,0.36 -5.95,-0.36 -5.91,-1.08 -5.69,-1.77 -5.48,-2.46 -5.10,-3.08 -4.73,-3.70 -4.21,-4.21 -3.70,-4.73 -3.08,-5.10 -2.46,-5.48 -1.77,-5.69 -1.08,-5.91 -0.35,-5.95 0.36,-5.99 1.07,-5.86 1.78,-5.73 2.44,-5.44 3.10,-5.14 3.68,-4.69 4.25,-4.24 4.25,-4.24 L 4.25,-4.24 Z"></path></g><g transform="translate(423.99993896484375 98) rotate(0 37 -4)" stroke="none"><path fill="#1e1e1e" d="M -0.17,-2.94 Q -0.17,-2.94 3.05,-3.65 6.28,-4.35 11.08,-5.03 15.88,-5.70 20.49,-6.14 25.10,-6.57 27.90,-6.90 30.70,-7.23 33.95,-7.40 37.21,-7.57 39.96,-7.84 42.72,-8.11 47.25,-8.75 51.78,-9.40 54.36,-9.75 56.94,-10.11 59.53,-10.29 62.12,-10.47 65.32,-11.04 68.52,-11.61 70.71,-11.94 72.91,-12.27 72.53,-11.75 72.16,-11.24 72.48,-11.26 72.79,-11.29 73.10,-11.23 73.42,-11.18 73.71,-11.05 74.00,-10.92 74.25,-10.73 74.50,-10.54 74.70,-10.29 74.89,-10.05 75.03,-9.76 75.16,-9.47 75.22,-9.16 75.28,-8.85 75.27,-8.53 75.25,-8.22 75.16,-7.91 75.07,-7.61 74.91,-7.34 74.75,-7.06 74.53,-6.84 74.30,-6.61 74.03,-6.45 73.77,-6.28 73.46,-6.18 73.16,-6.08 72.45,-6.14 71.75,-6.20 71.38,-6.41 71.01,-6.62 70.73,-6.94 70.44,-7.26 70.28,-7.65 70.11,-8.04 70.08,-8.46 70.04,-8.89 70.15,-9.30 70.25,-9.71 70.48,-10.07 70.71,-10.42 71.05,-10.69 71.38,-10.95 71.78,-11.10 72.18,-11.24 72.60,-11.25 73.03,-11.26 73.43,-11.14 73.84,-11.01 74.18,-10.76 74.53,-10.51 74.77,-10.17 75.02,-9.82 75.14,-9.41 75.27,-9.01 75.25,-8.58 75.24,-8.16 75.09,-7.76 74.94,-7.36 74.68,-7.03 74.41,-6.70 74.05,-6.47 73.69,-6.24 73.28,-6.14 72.86,-6.04 72.44,-6.08 72.02,-6.12 71.63,-6.28 71.24,-6.45 70.92,-6.74 70.61,-7.02 70.40,-7.40 70.19,-7.77 70.11,-8.18 70.04,-8.60 70.09,-9.02 70.15,-9.44 70.34,-9.82 70.53,-10.20 70.84,-10.50 71.14,-10.80 71.52,-10.99 71.90,-11.18 72.32,-11.23 72.74,-11.29 72.45,-11.26 72.16,-11.24 72.48,-11.26 72.79,-11.29 73.10,-11.23 73.42,-11.18 73.71,-11.05 74.00,-10.92 74.25,-10.73 74.50,-10.54 74.70,-10.29 74.89,-10.05 75.03,-9.76 75.16,-9.47 75.22,-9.16 75.28,-8.85 75.27,-8.53 75.25,-8.22 75.16,-7.91 75.07,-7.61 74.91,-7.34 74.75,-7.06 74.53,-6.84 74.30,-6.61 74.04,-6.45 73.77,-6.28 73.46,-6.18 73.16,-6.08 74.26,-4.54 75.36,-3.00 72.70,-2.58 70.05,-2.17 66.36,-1.64 62.66,-1.11 60.38,-1.01 58.10,-0.92 55.52,-0.62 52.95,-0.32 50.50,-0.03 48.06,0.25 45.77,0.54 43.49,0.84 40.53,1.06 37.57,1.28 34.59,1.36 31.61,1.44 28.77,1.70 25.92,1.97 21.33,2.29 16.75,2.61 13.87,2.84 10.99,3.06 8.87,3.32 6.75,3.58 3.46,3.26 0.17,2.94 -0.18,2.92 -0.53,2.90 -0.87,2.79 -1.21,2.68 -1.52,2.50 -1.82,2.32 -2.07,2.06 -2.32,1.81 -2.51,1.51 -2.69,1.20 -2.79,0.86 -2.90,0.52 -2.92,0.17 -2.94,-0.18 -2.88,-0.53 -2.81,-0.88 -2.67,-1.20 -2.52,-1.53 -2.30,-1.81 -2.08,-2.09 -1.80,-2.30 -1.52,-2.52 -1.19,-2.67 -0.87,-2.81 -0.52,-2.88 -0.17,-2.94 -0.17,-2.94 L -0.17,-2.94 Z"></path></g><g transform="translate(417.99993896484375 24.66668701171875) rotate(0 2.33331298828125 20.666656494140625)" stroke="none"><path fill="#1e1e1e" d="M 2.84,-0.21 Q 2.84,-0.21 3.47,2.23 4.10,4.69 4.56,7.85 5.02,11.00 5.36,14.32 5.71,17.64 6.09,21.04 6.48,24.45 7.08,27.77 7.69,31.09 7.94,33.62 8.18,36.15 7.73,38.59 7.27,41.04 7.25,41.46 7.23,41.89 7.07,42.28 6.92,42.68 6.64,43.00 6.37,43.33 6.00,43.55 5.64,43.77 5.22,43.86 4.81,43.95 4.39,43.91 3.96,43.86 3.58,43.68 3.19,43.51 2.88,43.21 2.57,42.92 2.37,42.55 2.17,42.17 2.10,41.75 2.03,41.33 2.10,40.91 2.17,40.50 2.37,40.12 2.57,39.74 2.87,39.45 3.18,39.16 3.57,38.98 3.95,38.80 4.38,38.75 4.80,38.71 5.21,38.80 5.63,38.89 5.99,39.10 6.36,39.32 6.63,39.65 6.91,39.97 7.07,40.36 7.23,40.76 7.25,41.18 7.27,41.61 7.16,42.02 7.05,42.43 6.81,42.78 6.57,43.13 6.23,43.39 5.90,43.65 5.49,43.78 5.09,43.92 4.67,43.92 4.24,43.92 3.84,43.79 3.44,43.65 3.10,43.40 2.76,43.14 2.52,42.79 2.28,42.44 2.17,42.03 2.05,41.62 2.05,41.62 2.05,41.62 0.71,37.02 -0.62,32.43 -1.23,28.91 -1.84,25.39 -2.12,22.08 -2.40,18.77 -2.71,15.43 -3.02,12.10 -3.17,8.68 -3.33,5.26 -3.08,2.74 -2.84,0.21 -2.82,-0.12 -2.81,-0.46 -2.71,-0.79 -2.61,-1.12 -2.44,-1.42 -2.27,-1.72 -2.03,-1.96 -1.79,-2.21 -1.50,-2.39 -1.21,-2.57 -0.88,-2.68 -0.55,-2.79 -0.21,-2.81 0.12,-2.84 0.46,-2.78 0.80,-2.73 1.11,-2.59 1.43,-2.46 1.70,-2.25 1.98,-2.04 2.19,-1.78 2.41,-1.51 2.55,-1.20 2.70,-0.89 2.77,-0.55 2.84,-0.21 2.84,-0.21 L 2.84,-0.21 Z"></path></g><g transform="translate(404.66656494140625 51.333343505859375) rotate(0 19 -2)" stroke="none"><path fill="#1e1e1e" d="M -0.25,-2.77 Q -0.25,-2.77 1.81,-3.38 3.88,-3.99 7.14,-4.11 10.40,-4.23 13.83,-4.75 17.25,-5.26 20.47,-5.59 23.68,-5.91 26.85,-6.30 30.02,-6.70 33.64,-6.61 37.27,-6.52 37.69,-6.57 38.11,-6.62 38.53,-6.53 38.94,-6.45 39.31,-6.23 39.67,-6.02 39.95,-5.69 40.23,-5.37 40.39,-4.98 40.55,-4.59 40.58,-4.16 40.61,-3.74 40.50,-3.33 40.39,-2.92 40.16,-2.56 39.92,-2.21 39.59,-1.95 39.25,-1.69 38.85,-1.55 38.45,-1.41 38.02,-1.40 37.60,-1.40 37.19,-1.53 36.79,-1.66 36.45,-1.91 36.11,-2.17 35.87,-2.52 35.62,-2.87 35.50,-3.28 35.39,-3.68 35.41,-4.11 35.42,-4.53 35.58,-4.93 35.73,-5.33 36.00,-5.65 36.27,-5.98 36.64,-6.20 37.00,-6.42 37.41,-6.52 37.83,-6.62 38.25,-6.57 38.67,-6.53 39.06,-6.36 39.45,-6.18 39.76,-5.90 40.07,-5.61 40.27,-5.23 40.48,-4.86 40.55,-4.44 40.62,-4.02 40.56,-3.60 40.49,-3.18 40.30,-2.80 40.10,-2.43 39.80,-2.13 39.49,-1.84 39.11,-1.65 38.72,-1.47 38.72,-1.47 38.72,-1.47 34.63,0.09 30.54,1.66 27.39,1.93 24.25,2.20 20.96,2.53 17.67,2.85 14.12,2.93 10.57,3.00 7.55,3.11 4.54,3.22 2.39,3.00 0.25,2.77 -0.08,2.76 -0.41,2.75 -0.74,2.66 -1.06,2.57 -1.36,2.41 -1.65,2.24 -1.89,2.01 -2.14,1.78 -2.32,1.50 -2.50,1.22 -2.61,0.90 -2.72,0.58 -2.75,0.25 -2.78,-0.08 -2.73,-0.41 -2.68,-0.74 -2.55,-1.05 -2.42,-1.37 -2.23,-1.64 -2.03,-1.91 -1.77,-2.12 -1.51,-2.34 -1.21,-2.49 -0.90,-2.63 -0.58,-2.70 -0.25,-2.77 -0.25,-2.77 L -0.25,-2.77 Z"></path></g><g transform="translate(461.33331298828125 22.66668701171875) rotate(0 0.6666259765625 17.333328247070312)" stroke="none"><path fill="#1e1e1e" d="M 3.23,0.20 Q 3.23,0.20 3.51,3.29 3.80,6.39 4.04,9.62 4.29,12.85 4.63,16.29 4.96,19.72 5.42,22.37 5.88,25.02 6.21,27.45 6.53,29.88 5.57,32.18 4.61,34.47 4.58,34.90 4.54,35.32 4.37,35.71 4.19,36.10 3.91,36.41 3.62,36.72 3.25,36.93 2.88,37.14 2.46,37.21 2.04,37.29 1.62,37.23 1.20,37.17 0.82,36.97 0.44,36.78 0.14,36.48 -0.14,36.17 -0.33,35.79 -0.51,35.41 -0.57,34.99 -0.62,34.57 -0.54,34.15 -0.45,33.73 -0.24,33.36 -0.03,33.00 0.28,32.72 0.60,32.44 0.99,32.27 1.39,32.11 1.81,32.08 2.23,32.05 2.64,32.15 3.06,32.26 3.41,32.49 3.77,32.72 4.03,33.06 4.29,33.39 4.44,33.79 4.58,34.19 4.59,34.62 4.59,35.04 4.47,35.45 4.34,35.85 4.09,36.19 3.83,36.54 3.49,36.78 3.14,37.03 2.73,37.15 2.32,37.27 1.90,37.25 1.48,37.24 1.08,37.09 0.68,36.94 0.35,36.67 0.02,36.40 -0.19,36.04 -0.42,35.68 -0.52,35.26 -0.61,34.85 -0.61,34.85 -0.61,34.85 -1.92,33.25 -3.22,31.65 -3.56,29.09 -3.90,26.53 -4.09,23.60 -4.27,20.68 -4.52,17.15 -4.76,13.62 -4.66,9.74 -4.56,5.87 -3.90,2.83 -3.23,-0.20 -3.16,-0.58 -3.09,-0.97 -2.93,-1.32 -2.77,-1.68 -2.53,-1.99 -2.28,-2.29 -1.98,-2.53 -1.67,-2.77 -1.31,-2.93 -0.95,-3.09 -0.57,-3.16 -0.18,-3.23 0.20,-3.21 0.59,-3.18 0.96,-3.07 1.33,-2.95 1.67,-2.75 2.00,-2.54 2.28,-2.27 2.55,-1.99 2.75,-1.65 2.96,-1.32 3.07,-0.95 3.19,-0.57 3.21,-0.18 3.23,0.20 3.23,0.20 L 3.23,0.20 Z"></path></g><g transform="translate(472.66656494140625 32) rotate(0 16 8.333343505859375)" stroke="none"><path fill="#1e1e1e" d="M -2.70,-0.90 Q -2.70,-0.90 -2.76,-2.83 -2.82,-4.77 -1.91,-7.21 -1.00,-9.66 0.68,-11.27 2.37,-12.89 4.42,-14.05 6.48,-15.21 9.77,-15.07 13.05,-14.93 15.28,-13.36 17.51,-11.79 19.05,-8.66 20.60,-5.52 20.95,-2.34 21.30,0.82 21.12,3.97 20.94,7.12 19.97,10.45 19.00,13.79 18.00,16.57 17.00,19.36 15.65,21.74 14.29,24.11 13.08,26.10 11.86,28.09 11.21,25.89 10.55,23.69 13.76,22.23 16.98,20.78 19.62,20.12 22.27,19.45 24.59,18.76 26.90,18.07 29.15,18.42 31.39,18.77 31.82,18.74 32.24,18.71 32.65,18.82 33.06,18.93 33.42,19.16 33.77,19.39 34.03,19.73 34.30,20.06 34.44,20.46 34.58,20.86 34.59,21.29 34.59,21.71 34.46,22.12 34.33,22.52 34.08,22.87 33.83,23.21 33.48,23.45 33.13,23.70 32.73,23.82 32.32,23.94 31.89,23.92 31.47,23.90 31.07,23.75 30.67,23.60 30.35,23.33 30.02,23.06 29.79,22.70 29.57,22.34 29.47,21.92 29.37,21.51 29.41,21.09 29.45,20.66 29.63,20.27 29.80,19.89 30.09,19.57 30.37,19.26 30.75,19.06 31.12,18.85 31.54,18.78 31.96,18.70 32.38,18.76 32.80,18.83 33.18,19.02 33.55,19.21 33.85,19.52 34.15,19.82 34.33,20.21 34.52,20.59 34.57,21.01 34.62,21.43 34.53,21.85 34.45,22.26 34.24,22.63 34.02,23.00 33.70,23.28 33.38,23.56 32.99,23.72 32.60,23.89 32.60,23.88 32.60,23.88 29.67,25.65 26.75,27.41 24.26,28.12 21.77,28.83 19.32,29.41 16.86,29.98 14.57,30.60 12.27,31.21 9.75,31.35 7.24,31.48 5.40,29.69 3.55,27.90 3.86,24.97 4.16,22.04 5.23,19.96 6.29,17.88 7.26,15.52 8.22,13.16 9.03,10.70 9.84,8.24 10.21,5.91 10.59,3.57 10.60,1.01 10.61,-1.55 9.18,-3.62 7.75,-5.70 6.43,-3.91 5.12,-2.12 3.91,-0.61 2.70,0.90 2.55,1.21 2.40,1.52 2.19,1.78 1.97,2.05 1.69,2.26 1.42,2.46 1.10,2.60 0.79,2.73 0.45,2.79 0.11,2.84 -0.22,2.81 -0.56,2.79 -0.89,2.68 -1.22,2.57 -1.51,2.39 -1.80,2.20 -2.03,1.95 -2.27,1.71 -2.44,1.41 -2.62,1.11 -2.71,0.78 -2.81,0.45 -2.82,0.11 -2.83,-0.22 -2.77,-0.56 -2.70,-0.90 -2.70,-0.90 L -2.70,-0.90 Z"></path></g><g transform="translate(512.6665649414062 18.66668701171875) rotate(0 13.66668701171875 13.666656494140625)" stroke="none"><path fill="#1e1e1e" d="M 3.75,-1.15 Q 3.75,-1.15 4.96,1.19 6.17,3.55 7.35,6.92 8.53,10.30 9.85,13.94 11.17,17.59 12.30,20.63 13.44,23.67 14.54,26.29 15.63,28.92 16.54,31.05 17.44,33.18 14.14,32.78 10.83,32.38 11.46,30.03 12.09,27.67 13.23,24.62 14.36,21.57 15.11,18.17 15.86,14.77 16.83,10.85 17.81,6.92 18.71,2.91 19.61,-1.09 20.47,-3.93 21.32,-6.76 23.06,-8.06 24.79,-9.35 24.97,-9.74 25.15,-10.13 25.44,-10.44 25.73,-10.75 26.10,-10.95 26.48,-11.15 26.90,-11.22 27.32,-11.29 27.74,-11.22 28.16,-11.15 28.53,-10.96 28.91,-10.76 29.20,-10.45 29.50,-10.15 29.68,-9.76 29.86,-9.38 29.90,-8.95 29.95,-8.53 29.86,-8.12 29.77,-7.70 29.56,-7.34 29.34,-6.97 29.02,-6.69 28.69,-6.42 28.30,-6.26 27.91,-6.10 27.48,-6.07 27.06,-6.05 26.65,-6.16 26.24,-6.27 25.88,-6.51 25.53,-6.75 25.27,-7.08 25.01,-7.42 24.88,-7.82 24.74,-8.22 24.74,-8.65 24.73,-9.07 24.87,-9.48 25.00,-9.88 25.26,-10.22 25.51,-10.56 25.86,-10.80 26.21,-11.04 26.62,-11.16 27.03,-11.27 27.46,-11.25 27.88,-11.23 28.28,-11.07 28.67,-10.92 29.00,-10.64 29.32,-10.37 29.54,-10.01 29.76,-9.64 29.86,-9.23 29.95,-8.82 29.91,-8.39 29.86,-7.97 29.86,-7.97 29.86,-7.97 30.06,-4.80 30.25,-1.63 29.24,1.84 28.22,5.32 27.19,9.27 26.16,13.21 25.71,15.30 25.26,17.39 24.33,21.07 23.40,24.74 22.57,27.03 21.74,29.33 20.85,31.57 19.96,33.82 18.19,36.47 16.42,39.13 12.07,37.68 7.73,36.23 6.64,33.56 5.54,30.89 4.23,27.69 2.91,24.49 1.68,20.73 0.45,16.97 -0.58,13.80 -1.63,10.62 -2.37,8.52 -3.11,6.41 -3.43,3.78 -3.75,1.15 -3.83,0.68 -3.91,0.22 -3.88,-0.24 -3.85,-0.72 -3.71,-1.17 -3.57,-1.62 -3.32,-2.02 -3.08,-2.43 -2.74,-2.76 -2.40,-3.09 -2.00,-3.34 -1.59,-3.58 -1.14,-3.72 -0.69,-3.86 -0.22,-3.88 0.25,-3.91 0.71,-3.82 1.18,-3.74 1.61,-3.54 2.04,-3.35 2.41,-3.05 2.78,-2.76 3.07,-2.39 3.36,-2.01 3.55,-1.58 3.75,-1.15 3.75,-1.15 L 3.75,-1.15 Z"></path></g><g transform="translate(560.6666870117188 411.3333740234375) rotate(0 7.33331298828125 13.666656494140625)" stroke="none"><path fill="#1e1e1e" d="M -0.31,2.80 Q -0.31,2.80 -2.05,3.12 -3.80,3.44 -5.88,4.89 -7.97,6.35 -9.80,8.89 -11.64,11.42 -12.26,13.82 -12.88,16.22 -13.26,18.92 -13.64,21.62 -13.16,23.79 -12.67,25.96 -10.90,28.16 -9.14,30.35 -6.05,31.73 -2.96,33.10 -0.21,33.17 2.52,33.23 5.46,32.83 8.41,32.44 11.45,30.87 14.49,29.30 17.57,26.79 20.66,24.27 22.71,21.98 24.77,19.68 25.98,17.22 27.20,14.76 27.64,12.12 28.08,9.49 27.44,6.66 26.80,3.82 24.94,1.25 23.07,-1.32 20.38,-3.13 17.68,-4.94 15.30,-4.94 12.92,-4.93 9.56,-3.51 6.20,-2.10 4.31,-0.68 2.42,0.72 0.14,2.35 -2.14,3.99 -6.48,5.93 -10.82,7.87 -11.17,8.11 -11.51,8.36 -11.92,8.48 -12.33,8.60 -12.75,8.59 -13.18,8.57 -13.58,8.42 -13.97,8.27 -14.30,8.00 -14.63,7.73 -14.86,7.37 -15.08,7.01 -15.18,6.60 -15.28,6.19 -15.24,5.76 -15.21,5.34 -15.03,4.95 -14.86,4.56 -14.58,4.25 -14.29,3.93 -13.92,3.73 -13.55,3.52 -13.13,3.45 -12.71,3.37 -12.29,3.43 -11.87,3.49 -11.49,3.68 -11.11,3.87 -10.81,4.18 -10.52,4.48 -10.33,4.86 -10.14,5.24 -10.09,5.67 -10.04,6.09 -10.12,6.50 -10.20,6.92 -10.42,7.29 -10.63,7.66 -10.95,7.94 -11.27,8.22 -11.66,8.38 -12.05,8.55 -12.47,8.58 -12.90,8.61 -13.31,8.51 -13.72,8.40 -14.08,8.17 -14.43,7.94 -14.70,7.60 -14.96,7.27 -15.10,6.87 -15.25,6.47 -15.25,6.04 -15.26,5.62 -15.13,5.21 -15.00,4.81 -14.75,4.47 -14.50,4.12 -14.50,4.12 -14.50,4.12 -13.19,0.95 -11.87,-2.22 -10.07,-3.51 -8.27,-4.81 -5.87,-6.43 -3.48,-8.06 -0.67,-9.80 2.12,-11.55 4.79,-12.64 7.46,-13.72 12.12,-14.36 16.78,-15.00 19.53,-14.19 22.29,-13.37 24.51,-11.88 26.74,-10.39 28.48,-8.67 30.22,-6.94 31.80,-4.86 33.38,-2.78 34.75,1.19 36.13,5.17 36.19,9.46 36.25,13.76 35.01,17.46 33.76,21.17 32.67,23.08 31.58,24.98 28.96,27.87 26.35,30.76 24.49,32.36 22.63,33.95 20.78,35.26 18.93,36.56 16.82,37.81 14.72,39.05 12.49,39.89 10.27,40.74 6.57,41.22 2.87,41.70 -1.23,41.47 -5.33,41.24 -7.52,40.56 -9.71,39.88 -12.31,38.11 -14.91,36.35 -17.01,33.81 -19.11,31.28 -20.40,28.01 -21.69,24.74 -21.66,21.16 -21.63,17.58 -20.92,14.45 -20.21,11.31 -18.63,8.08 -17.05,4.84 -15.69,3.20 -14.33,1.55 -12.33,-0.02 -10.34,-1.60 -6.71,-2.90 -3.09,-4.20 -1.39,-3.50 0.31,-2.80 0.64,-2.73 0.97,-2.65 1.27,-2.49 1.58,-2.34 1.83,-2.11 2.09,-1.89 2.29,-1.61 2.48,-1.33 2.61,-1.02 2.73,-0.70 2.78,-0.36 2.82,-0.02 2.78,0.31 2.75,0.64 2.63,0.96 2.51,1.28 2.32,1.57 2.13,1.85 1.88,2.08 1.62,2.31 1.32,2.47 1.02,2.63 0.69,2.71 0.36,2.80 0.02,2.80 -0.31,2.80 -0.31,2.80 L -0.31,2.80 Z"></path></g><g transform="translate(570.0000610351562 430) rotate(0 10.333251953125 13.66668701171875)" stroke="none"><path fill="#1e1e1e" d="M 3.51,-1.27 Q 3.51,-1.27 4.55,0.73 5.58,2.74 7.09,5.45 8.60,8.17 10.48,10.16 12.37,12.16 14.31,13.88 16.26,15.59 18.23,17.56 20.20,19.52 21.66,22.46 23.12,25.41 23.38,25.74 23.64,26.08 23.78,26.48 23.92,26.88 23.92,27.31 23.92,27.73 23.79,28.13 23.66,28.54 23.41,28.88 23.15,29.22 22.80,29.46 22.45,29.70 22.04,29.82 21.63,29.94 21.21,29.92 20.79,29.90 20.39,29.74 19.99,29.59 19.67,29.32 19.34,29.05 19.12,28.68 18.90,28.32 18.80,27.91 18.71,27.49 18.75,27.07 18.79,26.65 18.97,26.26 19.14,25.87 19.43,25.56 19.72,25.25 20.09,25.05 20.47,24.85 20.89,24.77 21.31,24.70 21.73,24.77 22.15,24.83 22.52,25.03 22.90,25.22 23.19,25.53 23.49,25.84 23.67,26.22 23.85,26.60 23.90,27.03 23.95,27.45 23.86,27.86 23.78,28.28 23.56,28.65 23.34,29.01 23.02,29.29 22.70,29.57 22.31,29.73 21.91,29.89 21.49,29.92 21.07,29.94 20.66,29.83 20.25,29.72 19.89,29.49 19.54,29.25 19.54,29.25 19.54,29.25 16.20,28.06 12.86,26.87 10.90,24.90 8.93,22.92 7.21,20.98 5.50,19.04 3.15,15.92 0.80,12.80 -0.85,9.24 -2.52,5.69 -3.01,3.48 -3.51,1.27 -3.61,0.83 -3.72,0.40 -3.71,-0.05 -3.70,-0.50 -3.59,-0.93 -3.48,-1.37 -3.26,-1.77 -3.05,-2.16 -2.74,-2.50 -2.44,-2.83 -2.06,-3.08 -1.69,-3.33 -1.26,-3.49 -0.84,-3.64 -0.39,-3.69 0.05,-3.74 0.49,-3.68 0.94,-3.62 1.36,-3.45 1.78,-3.28 2.15,-3.02 2.52,-2.76 2.81,-2.42 3.10,-2.08 3.31,-1.68 3.51,-1.27 3.51,-1.27 L 3.51,-1.27 Z"></path></g><g transform="translate(608.0000610351562 455.3333740234375) rotate(0 7.33331298828125 5.999969482421875)" stroke="none"><path fill="#1e1e1e" d="M -2.02,-1.79 Q -2.02,-1.79 -1.08,-4.05 -0.15,-6.31 1.62,-8.28 3.40,-10.24 3.92,-10.49 4.44,-10.74 4.70,-11.17 4.95,-11.61 5.29,-11.97 5.64,-12.34 6.07,-12.60 6.49,-12.87 6.97,-13.03 7.45,-13.19 7.95,-13.23 8.45,-13.28 8.94,-13.19 9.44,-13.11 9.90,-12.92 10.37,-12.72 10.77,-12.42 11.17,-12.12 11.49,-11.73 11.81,-11.34 12.02,-10.89 12.24,-10.43 12.34,-9.94 12.44,-9.45 12.42,-8.94 12.40,-8.44 12.26,-7.96 12.12,-7.47 11.31,-4.95 10.50,-2.43 9.85,-0.30 9.20,1.81 9.08,4.05 8.96,6.29 8.89,8.46 8.81,10.63 8.87,13.09 8.92,15.54 7.46,13.92 6.00,12.31 7.10,12.49 8.20,12.67 8.76,12.75 9.31,12.82 9.84,13.02 10.36,13.22 10.82,13.54 11.28,13.86 11.65,14.29 12.02,14.71 12.27,15.21 12.53,15.70 12.66,16.25 12.79,16.80 12.79,17.36 12.79,17.92 12.65,18.46 12.51,19.00 12.25,19.50 11.98,19.99 11.61,20.41 11.23,20.83 10.77,21.14 10.31,21.46 9.78,21.66 9.25,21.85 8.70,21.92 8.14,21.98 5.92,22.58 3.70,23.17 1.54,23.75 -0.62,24.33 -3.59,24.46 -6.57,24.59 -7.91,22.84 -9.25,21.10 -7.49,18.54 -5.74,15.97 -2.85,15.76 0.03,15.55 3.14,15.17 6.25,14.78 8.87,14.43 11.50,14.07 13.99,13.88 16.49,13.69 18.57,14.53 20.66,15.37 21.08,15.44 21.50,15.51 21.88,15.70 22.25,15.90 22.54,16.21 22.84,16.52 23.01,16.91 23.19,17.29 23.24,17.71 23.28,18.14 23.19,18.55 23.10,18.97 22.88,19.33 22.66,19.70 22.34,19.97 22.02,20.25 21.62,20.40 21.23,20.56 20.80,20.58 20.38,20.61 19.97,20.49 19.56,20.38 19.21,20.14 18.86,19.90 18.60,19.56 18.34,19.23 18.21,18.82 18.07,18.42 18.07,18.00 18.07,17.57 18.21,17.17 18.34,16.76 18.60,16.43 18.86,16.09 19.21,15.85 19.56,15.61 19.97,15.50 20.38,15.38 20.80,15.41 21.23,15.43 21.62,15.59 22.02,15.74 22.34,16.02 22.66,16.29 22.88,16.66 23.10,17.02 23.19,17.44 23.28,17.85 23.24,18.28 23.19,18.70 23.01,19.08 22.84,19.47 22.54,19.78 22.25,20.09 21.88,20.29 21.50,20.48 21.08,20.55 20.66,20.62 20.66,20.62 20.66,20.62 17.61,21.22 14.57,21.82 11.91,22.01 9.26,22.20 6.40,22.53 3.54,22.86 0.47,22.97 -2.60,23.08 -3.43,20.36 -4.26,17.63 -1.89,17.46 0.46,17.29 2.61,16.29 4.77,15.28 6.48,13.98 8.20,12.67 8.76,12.75 9.31,12.82 9.84,13.02 10.36,13.22 10.82,13.54 11.28,13.86 11.65,14.29 12.02,14.71 12.27,15.21 12.53,15.70 12.66,16.25 12.79,16.80 12.79,17.36 12.79,17.92 12.65,18.46 12.51,19.00 12.25,19.50 11.98,19.99 11.61,20.41 11.23,20.83 10.77,21.14 10.31,21.46 9.78,21.66 9.26,21.85 8.70,21.92 8.14,21.98 5.95,22.02 3.76,22.06 1.96,19.99 0.16,17.92 0.37,15.57 0.57,13.22 0.52,10.96 0.47,8.71 0.48,6.56 0.48,4.40 0.77,1.82 1.06,-0.76 1.88,-3.58 2.70,-6.41 3.57,-8.57 4.44,-10.74 4.70,-11.17 4.95,-11.61 5.29,-11.97 5.64,-12.34 6.07,-12.60 6.49,-12.87 6.97,-13.03 7.45,-13.19 7.95,-13.23 8.45,-13.28 8.94,-13.19 9.44,-13.11 9.90,-12.92 10.37,-12.72 10.77,-12.42 11.17,-12.12 11.49,-11.73 11.81,-11.34 12.02,-10.89 12.24,-10.43 12.34,-9.94 12.44,-9.45 12.42,-8.94 12.40,-8.44 12.26,-7.96 12.12,-7.48 10.83,-5.64 9.53,-3.81 7.91,-2.20 6.28,-0.58 4.15,0.60 2.02,1.79 1.77,2.01 1.53,2.23 1.24,2.38 0.95,2.53 0.63,2.61 0.32,2.68 -0.00,2.68 -0.33,2.68 -0.64,2.60 -0.96,2.53 -1.25,2.37 -1.54,2.22 -1.78,2.00 -2.03,1.79 -2.21,1.52 -2.40,1.25 -2.51,0.94 -2.63,0.64 -2.66,0.31 -2.70,-0.00 -2.66,-0.32 -2.62,-0.65 -2.51,-0.95 -2.39,-1.26 -2.21,-1.53 -2.02,-1.79 -2.02,-1.79 L -2.02,-1.79 Z"></path></g><g transform="translate(180 425.3333740234375) rotate(0 0 13.6666259765625)" stroke="none"><path fill="#1e1e1e" d="M 0.46,2.77 Q 0.46,2.77 -1.75,3.61 -3.97,4.45 -6.11,5.36 -8.25,6.26 -9.65,8.97 -11.05,11.68 -10.94,14.39 -10.82,17.11 -9.49,19.20 -8.15,21.28 -5.54,22.42 -2.93,23.55 0.08,23.69 3.10,23.83 5.19,22.22 7.27,20.60 8.32,18.71 9.37,16.83 9.83,14.68 10.30,12.54 9.40,10.60 8.50,8.65 6.90,6.97 5.30,5.28 3.12,4.37 0.93,3.46 -1.04,4.66 -3.03,5.86 -3.65,6.73 -4.26,7.59 -4.16,8.00 -4.05,8.41 -4.08,8.84 -4.10,9.26 -4.27,9.65 -4.43,10.04 -4.71,10.36 -4.99,10.69 -5.35,10.90 -5.72,11.11 -6.14,11.20 -6.55,11.29 -6.97,11.23 -7.40,11.18 -7.78,11.00 -8.16,10.82 -8.47,10.52 -8.77,10.22 -8.97,9.85 -9.16,9.47 -9.22,9.05 -9.29,8.63 -9.21,8.21 -9.14,7.79 -8.94,7.42 -8.73,7.05 -8.42,6.76 -8.11,6.47 -7.72,6.30 -7.33,6.12 -6.91,6.08 -6.49,6.04 -6.07,6.14 -5.66,6.23 -5.30,6.46 -4.94,6.68 -4.66,7.01 -4.39,7.34 -4.24,7.73 -4.09,8.13 -4.07,8.55 -4.05,8.98 -4.17,9.39 -4.29,9.80 -4.54,10.14 -4.78,10.49 -5.12,10.75 -5.46,11.00 -5.87,11.13 -6.27,11.26 -6.70,11.25 -7.12,11.25 -7.52,11.11 -7.92,10.97 -8.26,10.70 -8.59,10.44 -8.83,10.09 -9.06,9.73 -9.06,9.73 -9.06,9.73 -9.99,5.77 -10.92,1.80 -8.89,-0.35 -6.86,-2.52 -4.55,-3.70 -2.24,-4.87 1.92,-4.84 6.09,-4.81 8.95,-3.31 11.81,-1.81 14.27,0.76 16.73,3.33 17.89,5.34 19.04,7.35 19.50,10.47 19.96,13.59 19.42,16.21 18.87,18.83 17.64,21.55 16.40,24.27 14.22,26.93 12.04,29.59 9.60,31.05 7.16,32.51 5.03,32.95 2.91,33.38 -0.38,33.19 -3.67,32.99 -6.48,32.08 -9.30,31.17 -11.99,29.51 -14.68,27.85 -16.37,25.94 -18.06,24.03 -18.72,21.87 -19.38,19.70 -19.46,16.40 -19.53,13.10 -18.90,10.30 -18.27,7.50 -17.00,5.34 -15.72,3.18 -13.52,1.16 -11.32,-0.85 -8.27,-1.88 -5.22,-2.92 -2.84,-2.84 -0.46,-2.77 -0.12,-2.78 0.21,-2.80 0.54,-2.73 0.87,-2.67 1.18,-2.52 1.49,-2.38 1.75,-2.16 2.02,-1.95 2.22,-1.68 2.42,-1.41 2.56,-1.10 2.69,-0.79 2.75,-0.45 2.80,-0.12 2.78,0.21 2.75,0.55 2.65,0.87 2.54,1.19 2.36,1.48 2.18,1.76 1.94,2.00 1.69,2.24 1.40,2.41 1.11,2.58 0.78,2.67 0.46,2.77 0.46,2.77 L 0.46,2.77 Z"></path></g><g transform="translate(58 458.66668701171875) rotate(0 14.66668701171875 -3.333343505859375)" stroke="none"><path fill="#1e1e1e" d="M -1.29,2.58 Q -1.29,2.58 -3.12,2.19 -4.96,1.80 -6.83,-0.59 -8.70,-2.99 -8.62,-6.14 -8.54,-9.30 -6.82,-12.45 -5.10,-15.60 -3.71,-17.89 -2.31,-20.18 -0.25,-22.59 1.81,-25.00 3.93,-26.56 6.05,-28.11 8.86,-28.59 11.67,-29.07 13.63,-26.78 15.59,-24.49 16.03,-21.49 16.46,-18.49 16.52,-15.53 16.58,-12.58 16.84,-9.09 17.09,-5.60 17.31,-1.58 17.53,2.42 18.04,5.04 18.55,7.67 19.42,10.32 20.29,12.97 22.38,11.67 24.47,10.37 25.95,7.41 27.44,4.45 28.36,0.83 29.29,-2.78 29.96,-6.43 30.64,-10.07 30.70,-13.20 30.76,-16.32 30.66,-18.60 30.57,-20.88 31.30,-22.77 32.04,-24.67 32.10,-25.09 32.17,-25.51 32.37,-25.88 32.57,-26.26 32.88,-26.55 33.19,-26.84 33.58,-27.02 33.97,-27.19 34.39,-27.24 34.81,-27.28 35.23,-27.19 35.64,-27.10 36.00,-26.88 36.37,-26.66 36.64,-26.33 36.92,-26.01 37.07,-25.62 37.23,-25.22 37.25,-24.80 37.27,-24.37 37.16,-23.96 37.04,-23.55 36.80,-23.20 36.56,-22.85 36.23,-22.59 35.89,-22.34 35.48,-22.20 35.08,-22.07 34.66,-22.07 34.23,-22.07 33.83,-22.21 33.43,-22.34 33.09,-22.60 32.75,-22.86 32.51,-23.21 32.27,-23.56 32.16,-23.97 32.05,-24.38 32.07,-24.81 32.10,-25.23 32.26,-25.63 32.41,-26.02 32.69,-26.34 32.97,-26.67 33.33,-26.89 33.70,-27.10 34.11,-27.19 34.53,-27.28 34.95,-27.24 35.37,-27.19 35.76,-27.01 36.14,-26.83 36.45,-26.54 36.76,-26.25 36.96,-25.87 37.15,-25.49 37.22,-25.07 37.29,-24.65 37.29,-24.66 37.29,-24.66 37.92,-21.46 38.55,-18.26 38.25,-15.36 37.94,-12.45 37.37,-8.71 36.79,-4.97 35.50,-1.05 34.22,2.86 32.86,6.62 31.50,10.39 30.03,13.06 28.57,15.74 26.60,18.09 24.64,20.44 22.57,21.45 20.50,22.45 18.09,21.04 15.69,19.63 14.42,17.47 13.15,15.31 12.17,12.25 11.19,9.18 10.52,6.17 9.85,3.16 9.58,-1.04 9.31,-5.24 9.00,-8.85 8.68,-12.45 8.61,-15.19 8.54,-17.92 8.25,-20.44 7.97,-22.96 10.19,-22.66 12.41,-22.36 10.53,-20.48 8.66,-18.60 6.95,-16.79 5.25,-14.98 3.91,-12.94 2.56,-10.90 0.69,-7.88 -1.17,-4.86 0.06,-3.72 1.29,-2.58 1.58,-2.39 1.87,-2.20 2.11,-1.94 2.34,-1.68 2.51,-1.38 2.68,-1.07 2.77,-0.74 2.86,-0.40 2.87,-0.05 2.87,0.29 2.80,0.63 2.72,0.97 2.56,1.28 2.41,1.59 2.18,1.86 1.96,2.12 1.67,2.33 1.39,2.53 1.07,2.66 0.74,2.79 0.40,2.84 0.05,2.89 -0.29,2.85 -0.63,2.82 -0.96,2.70 -1.29,2.58 -1.29,2.58 L -1.29,2.58 Z"></path></g><g transform="translate(111.33331298828125 472.66668701171875) rotate(0 6.66668701171875 10)" stroke="none"><path fill="#1e1e1e" d="M 2.80,0.21 Q 2.80,0.21 2.94,2.73 3.09,5.25 2.83,8.62 2.57,12.00 2.62,14.44 2.68,16.89 3.77,14.95 4.87,13.01 6.74,11.54 8.61,10.07 9.86,10.07 11.11,10.07 10.95,9.68 10.78,9.29 10.74,8.87 10.71,8.45 10.81,8.03 10.92,7.62 11.15,7.26 11.37,6.91 11.71,6.64 12.04,6.37 12.44,6.23 12.84,6.08 13.26,6.07 13.69,6.06 14.09,6.18 14.50,6.31 14.84,6.56 15.19,6.81 15.43,7.15 15.68,7.50 15.81,7.90 15.93,8.31 15.92,8.73 15.91,9.16 15.76,9.56 15.61,9.96 15.35,10.29 15.08,10.62 14.72,10.85 14.36,11.08 13.95,11.18 13.54,11.28 13.12,11.24 12.69,11.21 12.30,11.04 11.91,10.87 11.60,10.59 11.28,10.31 11.07,9.94 10.86,9.57 10.78,9.15 10.70,8.73 10.76,8.31 10.82,7.89 11.01,7.51 11.20,7.13 11.50,6.83 11.80,6.53 12.18,6.34 12.56,6.15 12.98,6.09 13.40,6.04 13.82,6.12 14.24,6.20 14.61,6.41 14.98,6.62 15.26,6.93 15.54,7.25 15.54,7.25 15.54,7.25 15.58,11.89 15.62,16.53 13.66,17.99 11.69,19.44 9.57,20.72 7.44,22.00 5.24,22.88 3.04,23.76 -0.08,23.06 -3.21,22.37 -4.26,19.58 -5.32,16.80 -5.11,14.11 -4.89,11.43 -4.37,8.07 -3.86,4.71 -3.33,2.24 -2.80,-0.21 -2.73,-0.54 -2.67,-0.88 -2.52,-1.18 -2.38,-1.49 -2.16,-1.75 -1.95,-2.02 -1.68,-2.22 -1.41,-2.42 -1.10,-2.56 -0.79,-2.69 -0.45,-2.75 -0.12,-2.80 0.21,-2.78 0.55,-2.75 0.87,-2.65 1.19,-2.54 1.48,-2.36 1.77,-2.18 2.00,-1.94 2.24,-1.69 2.41,-1.40 2.58,-1.11 2.67,-0.78 2.77,-0.46 2.78,-0.12 2.80,0.21 2.80,0.21 L 2.80,0.21 Z"></path></g><g transform="translate(113.33331298828125 458.66668701171875) rotate(0 0 -1)" stroke="none"><path fill="#1e1e1e" d="M -3.70,0 Q -3.70,0 -3.16,-1 -2.62,-2 -2.55,-2.41 -2.48,-2.83 -2.29,-3.21 -2.09,-3.58 -1.78,-3.88 -1.47,-4.17 -1.08,-4.35 -0.70,-4.53 -0.28,-4.57 0.14,-4.62 0.55,-4.53 0.97,-4.44 1.33,-4.22 1.70,-4.00 1.97,-3.67 2.25,-3.35 2.40,-2.95 2.56,-2.56 2.58,-2.14 2.61,-1.71 2.49,-1.30 2.38,-0.89 2.14,-0.54 1.90,-0.19 1.56,0.06 1.23,0.32 0.82,0.45 0.42,0.59 -0.00,0.59 -0.42,0.59 -0.82,0.45 -1.23,0.32 -1.56,0.06 -1.90,-0.19 -2.14,-0.54 -2.38,-0.89 -2.49,-1.30 -2.61,-1.71 -2.58,-2.14 -2.56,-2.56 -2.40,-2.95 -2.25,-3.35 -1.97,-3.67 -1.69,-4.00 -1.33,-4.22 -0.97,-4.44 -0.55,-4.53 -0.14,-4.62 0.28,-4.57 0.70,-4.53 1.08,-4.35 1.47,-4.17 1.78,-3.88 2.09,-3.58 2.29,-3.21 2.48,-2.83 2.55,-2.41 2.62,-1.99 2.62,-1.99 2.62,-2 3.16,-1 3.70,0 3.64,0.44 3.59,0.88 3.43,1.30 3.27,1.71 3.02,2.08 2.76,2.45 2.43,2.74 2.10,3.04 1.70,3.25 1.31,3.45 0.87,3.56 0.44,3.67 -0.00,3.67 -0.44,3.67 -0.87,3.56 -1.31,3.45 -1.70,3.25 -2.10,3.04 -2.43,2.74 -2.76,2.45 -3.02,2.08 -3.27,1.71 -3.43,1.30 -3.59,0.88 -3.64,0.44 -3.70,-0.00 -3.70,-0.00 L -3.70,0 Z"></path></g><g transform="translate(107.33331298828125 451.3333740234375) rotate(0 0 3.666656494140625)" stroke="none"><path fill="#1e1e1e" d="M 2.73,-0.39 Q 2.73,-0.39 3.38,0.88 4.03,2.16 4.40,4.29 4.77,6.43 4.74,6.93 4.71,7.43 4.56,7.90 4.41,8.38 4.15,8.80 3.89,9.23 3.54,9.58 3.18,9.93 2.76,10.19 2.33,10.45 1.85,10.59 1.38,10.74 0.88,10.77 0.38,10.80 -0.10,10.71 -0.59,10.62 -1.05,10.41 -1.50,10.21 -1.89,9.90 -2.28,9.59 -2.59,9.19 -2.90,8.80 -3.10,8.35 -3.30,7.89 -3.39,7.40 -3.48,6.91 -2.26,4.77 -1.04,2.63 -1.59,3.63 -2.14,4.62 -2.55,4.53 -2.97,4.43 -3.33,4.22 -3.70,4.00 -3.97,3.67 -4.25,3.35 -4.40,2.95 -4.56,2.56 -4.58,2.13 -4.61,1.71 -4.49,1.30 -4.38,0.89 -4.14,0.54 -3.90,0.19 -3.56,-0.06 -3.22,-0.32 -2.82,-0.45 -2.42,-0.59 -1.99,-0.59 -1.57,-0.59 -1.17,-0.45 -0.76,-0.31 -0.42,-0.06 -0.09,0.19 0.14,0.54 0.38,0.89 0.49,1.30 0.61,1.71 0.58,2.14 0.56,2.56 0.40,2.96 0.24,3.35 -0.02,3.67 -0.30,4.00 -0.66,4.22 -1.02,4.44 -1.44,4.53 -1.86,4.62 -2.28,4.57 -2.70,4.53 -3.09,4.35 -3.47,4.17 -3.78,3.88 -4.09,3.58 -4.29,3.21 -4.48,2.83 -4.55,2.41 -4.62,1.99 -4.55,1.57 -4.48,1.15 -4.28,0.78 -4.08,0.40 -3.78,0.11 -3.47,-0.17 -3.08,-0.35 -2.70,-0.53 -2.27,-0.57 -1.85,-0.62 -1.85,-0.62 -1.85,-0.62 1.74,0.02 5.35,0.67 5.43,4.15 5.51,7.63 3.94,9.16 2.36,10.70 3.56,8.56 4.77,6.43 4.74,6.93 4.71,7.43 4.56,7.90 4.41,8.38 4.15,8.80 3.89,9.23 3.54,9.58 3.18,9.93 2.76,10.19 2.33,10.45 1.85,10.59 1.38,10.74 0.88,10.77 0.38,10.80 -0.10,10.71 -0.59,10.62 -1.04,10.41 -1.50,10.21 -1.89,9.90 -2.28,9.59 -2.59,9.19 -2.90,8.80 -3.10,8.35 -3.30,7.89 -3.39,7.40 -3.48,6.91 -3.37,5.05 -3.27,3.20 -3.00,1.79 -2.73,0.39 -2.74,0.05 -2.75,-0.27 -2.68,-0.60 -2.60,-0.92 -2.45,-1.22 -2.31,-1.52 -2.09,-1.77 -1.87,-2.03 -1.60,-2.22 -1.33,-2.42 -1.02,-2.54 -0.71,-2.67 -0.38,-2.71 -0.05,-2.76 0.27,-2.73 0.60,-2.70 0.92,-2.58 1.23,-2.47 1.51,-2.29 1.79,-2.10 2.01,-1.86 2.24,-1.61 2.40,-1.32 2.56,-1.03 2.65,-0.71 2.73,-0.39 2.73,-0.39 L 2.73,-0.39 Z"></path></g><g transform="translate(10 212.66668701171875) rotate(0 0.00004999999998744897 0.00004999999998744897)" stroke="none"><path fill="#1e1e1e" d="M 3.14,-3.14 Q 3.14,-3.14 3.55,-2.55 3.97,-1.97 4.18,-1.28 4.40,-0.59 4.38,0.11 4.36,0.83 4.11,1.51 3.86,2.18 3.41,2.74 2.96,3.30 2.36,3.69 1.75,4.08 1.05,4.25 0.36,4.42 -0.35,4.36 -1.07,4.31 -1.73,4.02 -2.39,3.74 -2.92,3.26 -3.46,2.78 -3.81,2.15 -4.16,1.53 -4.30,0.82 -4.43,0.11 -4.34,-0.59 -4.24,-1.30 -3.92,-1.94 -3.60,-2.59 -3.09,-3.09 -2.59,-3.60 -1.94,-3.92 -1.30,-4.24 -0.59,-4.34 0.12,-4.43 0.82,-4.30 1.53,-4.16 2.15,-3.81 2.78,-3.46 3.26,-2.92 3.74,-2.39 4.02,-1.73 4.31,-1.07 4.36,-0.35 4.42,0.36 4.25,1.05 4.07,1.75 3.69,2.36 3.30,2.96 2.74,3.41 2.18,3.86 1.51,4.11 0.83,4.36 0.11,4.38 -0.60,4.40 -1.28,4.18 -1.97,3.97 -2.55,3.55 -3.14,3.13 -3.14,3.14 -3.14,3.14 -3.47,2.71 -3.80,2.29 -4.02,1.80 -4.24,1.32 -4.33,0.79 -4.43,0.26 -4.40,-0.26 -4.36,-0.80 -4.20,-1.31 -4.04,-1.82 -3.77,-2.28 -3.49,-2.73 -3.11,-3.11 -2.73,-3.49 -2.28,-3.77 -1.82,-4.05 -1.31,-4.20 -0.80,-4.36 -0.26,-4.40 0.26,-4.43 0.79,-4.33 1.32,-4.24 1.80,-4.02 2.29,-3.80 2.71,-3.47 3.14,-3.14 3.14,-3.14 L 3.14,-3.14 Z"></path></g></svg>